<?xml version="1.0" encoding="UTF-8"?>
<svg version="1.1" xmlns="http://www.w3.org/2000/svg" width="128" height="128" viewBox="0 0 128 128">
<path d="M0 0 C28.71 0 57.42 0 87 0 C87 18.15 87 36.3 87 55 C98.9969449 54.84187454 98.9969449 54.84187454 110.99316406 54.63964844 C112.50063952 54.62796258 114.00812762 54.61777051 115.515625 54.609375 C116.29405762 54.58891113 117.07249023 54.56844727 117.87451172 54.54736328 C121.17934988 54.54523525 123.58439662 54.77053919 126.49926758 56.37988281 C128.88294185 60.54152138 128.55051001 64.59938359 128.49609375 69.3125 C128.49754898 70.31837158 128.49900421 71.32424316 128.50050354 72.3605957 C128.49884484 74.48554381 128.48728688 76.61050397 128.46655273 78.73535156 C128.43760546 81.98814925 128.44594336 85.2393165 128.45898438 88.4921875 C128.45274667 90.55729959 128.44435548 92.62240653 128.43359375 94.6875 C128.43652939 95.66050049 128.43946503 96.63350098 128.44248962 97.63598633 C128.42980545 98.54372803 128.41712128 99.45146973 128.40405273 100.38671875 C128.39864975 101.18295654 128.39324677 101.97919434 128.38768005 102.79956055 C127.89794426 105.5792598 126.91848328 106.95234045 125 109 C121.30459598 110.23180134 117.89696622 110.12412112 114.05078125 110.09765625 C113.27816452 110.0962413 112.50554779 110.09482635 111.70951843 110.09336853 C109.24380611 110.08777466 106.77818485 110.07522333 104.3125 110.0625 C102.63997527 110.05748421 100.96744912 110.05292144 99.29492188 110.04882812 C95.19655134 110.03865847 91.09837752 110.01908194 87 110 C87 115.94 87 121.88 87 128 C80.92243483 126.78448697 80.0149268 125.38840836 76 121 C73.11666839 122.17469065 71.72818275 123.29272627 69.5625 125.625 C67 128 67 128 64.625 128.75 C60.35977942 127.53136555 57.88033943 124.25387048 55 121 C52.12632241 122.30014166 50.78101419 123.23583088 48.5625 125.625 C46 128 46 128 43.625 128.75 C39.35977942 127.53136555 36.88033943 124.25387048 34 121 C31.12632241 122.30014166 29.78101419 123.23583088 27.5625 125.625 C25 128 25 128 22.625 128.75 C18.35977942 127.53136555 15.88033943 124.25387048 13 121 C10.13007278 122.30119582 8.74572034 123.26699364 6.5 125.625 C4 128 4 128 0 128 C0 85.76 0 43.52 0 0 Z " fill="#D9F1FA" transform="translate(0,0)"/>
<path d="M0 0 C0.99 0 1.98 0 3 0 C3 10.56 3 21.12 3 32 C5.62453125 31.95359375 8.2490625 31.9071875 10.953125 31.859375 C13.49818997 31.82817007 16.04323353 31.8038877 18.58837891 31.78027344 C20.35572872 31.7601715 22.12301213 31.73288528 23.89013672 31.69824219 C26.43213285 31.64965991 28.97324896 31.62701774 31.515625 31.609375 C32.69865204 31.57840729 32.69865204 31.57840729 33.90557861 31.54681396 C37.19955079 31.54546996 39.59479504 31.77628031 42.49926758 33.37988281 C44.88294185 37.54152138 44.55051001 41.59938359 44.49609375 46.3125 C44.49754898 47.31837158 44.49900421 48.32424316 44.50050354 49.3605957 C44.49884484 51.48554381 44.48728688 53.61050397 44.46655273 55.73535156 C44.43760546 58.98814925 44.44594336 62.2393165 44.45898438 65.4921875 C44.45274667 67.55729959 44.44435548 69.62240653 44.43359375 71.6875 C44.43652939 72.66050049 44.43946503 73.63350098 44.44248962 74.63598633 C44.42980545 75.54372803 44.41712128 76.45146973 44.40405273 77.38671875 C44.39864975 78.18295654 44.39324677 78.97919434 44.38768005 79.79956055 C43.89794426 82.5792598 42.91848328 83.95234045 41 86 C37.30459598 87.23180134 33.89696622 87.12412112 30.05078125 87.09765625 C29.27816452 87.0962413 28.50554779 87.09482635 27.70951843 87.09336853 C25.24380611 87.08777466 22.77818485 87.07522333 20.3125 87.0625 C18.63997527 87.05748421 16.96744912 87.05292144 15.29492188 87.04882812 C11.19655134 87.03865847 7.09837752 87.01908194 3 87 C3 92.94 3 98.88 3 105 C-3.07756517 103.78448697 -3.9850732 102.38840836 -8 98 C-10.88333161 99.17469065 -12.27181725 100.29272627 -14.4375 102.625 C-17 105 -17 105 -19.375 105.75 C-23.64022058 104.53136555 -26.11966057 101.25387048 -29 98 C-31.87367759 99.30014166 -33.21898581 100.23583088 -35.4375 102.625 C-38 105 -38 105 -40.375 105.75 C-44.64022058 104.53136555 -47.11966057 101.25387048 -50 98 C-52.87367759 99.30014166 -54.21898581 100.23583088 -56.4375 102.625 C-59 105 -59 105 -61.375 105.75 C-65.64022058 104.53136555 -68.11966057 101.25387048 -71 98 C-73.86992722 99.30119582 -75.25427966 100.26699364 -77.5 102.625 C-80 105 -80 105 -84 105 C-84 89.49 -84 73.98 -84 58 C-82.68 58.33 -81.36 58.66 -80 59 C-79.67 71.54 -79.34 84.08 -79 97 C-77.02 95.02 -75.04 93.04 -73 91 C-68.87407007 92.03148248 -68.02929503 92.62286102 -65.25 95.5625 C-64.63640625 96.20316406 -64.0228125 96.84382813 -63.390625 97.50390625 C-62.70226563 98.24447266 -62.70226563 98.24447266 -62 99 C-58.25363098 97.34481541 -56.19805148 95.20263039 -53.5625 92.14453125 C-52 91 -52 91 -50.046875 91.1015625 C-47.54181513 92.20111168 -46.12539126 93.57891309 -44.25 95.5625 C-43.63640625 96.20316406 -43.0228125 96.84382813 -42.390625 97.50390625 C-41.93171875 97.99761719 -41.4728125 98.49132812 -41 99 C-39.87411986 98.04270084 -38.7493285 97.08412105 -37.625 96.125 C-36.99851563 95.59132813 -36.37203125 95.05765625 -35.7265625 94.5078125 C-34.44163349 93.38567993 -33.20628025 92.20628025 -32 91 C-28.38008264 91.29168756 -26.67636187 92.99615571 -24.25 95.5625 C-23.63640625 96.20316406 -23.0228125 96.84382813 -22.390625 97.50390625 C-21.93171875 97.99761719 -21.4728125 98.49132812 -21 99 C-17.25363098 97.34481541 -15.19805148 95.20263039 -12.5625 92.14453125 C-11 91 -11 91 -8.984375 91.1640625 C-5.98794655 92.42633748 -4.17783654 94.64067708 -2 97 C-1.67 93.37 -1.34 89.74 -1 86 C-2.3317627 86.0314209 -2.3317627 86.0314209 -3.69042969 86.06347656 C-6.99294455 86.13175677 -10.2947067 86.1818487 -13.59765625 86.21972656 C-15.02551121 86.23980982 -16.45328425 86.26708252 -17.88085938 86.30175781 C-19.93640368 86.35042669 -21.99085855 86.37299967 -24.046875 86.390625 C-25.28276367 86.41157227 -26.51865234 86.43251953 -27.79199219 86.45410156 C-31.58537165 85.91713917 -32.68888744 84.98212544 -35 82 C-36.27861615 79.44276771 -36.11336609 77.63262898 -36.09765625 74.7734375 C-36.09515869 73.84450684 -36.09266113 72.91557617 -36.09008789 71.95849609 C-36.08098389 70.77594238 -36.07187988 69.59338867 -36.0625 68.375 C-36.041875 64.62125 -36.02125 60.8675 -36 57 C-46.23 57 -56.46 57 -67 57 C-67.33 55.68 -67.66 54.36 -68 53 C-57.11 53 -46.22 53 -35 53 C-35 49.04 -35 45.08 -35 41 C-45.89 41 -56.78 41 -68 41 C-68 40.01 -68 39.02 -68 38 C-57.11 38 -46.22 38 -35 38 C-34.34 36.68 -33.68 35.36 -33 34 C-31 32 -31 32 -28.01904297 31.77294922 C-26.77268066 31.78342285 -25.52631836 31.79389648 -24.2421875 31.8046875 C-23.24761032 31.80893234 -23.24761032 31.80893234 -22.23294067 31.81326294 C-20.11344417 31.82446565 -17.99436896 31.84956949 -15.875 31.875 C-14.43880818 31.88502972 -13.00260975 31.89415559 -11.56640625 31.90234375 C-8.04413372 31.924405 -4.52210797 31.95893506 -1 32 C-1.00523682 31.06615479 -1.01047363 30.13230957 -1.01586914 29.17016602 C-1.0328762 25.71687204 -1.04543302 22.26362233 -1.05493164 18.81030273 C-1.05997121 17.31355082 -1.06680287 15.81680384 -1.07543945 14.32006836 C-1.08752159 12.17300193 -1.09323191 10.02600038 -1.09765625 7.87890625 C-1.10289307 6.5854126 -1.10812988 5.29191895 -1.11352539 3.95922852 C-1 1 -1 1 0 0 Z " fill="#6BC148" transform="translate(84,23)"/>
<path d="M0 0 C0.99 0 1.98 0 3 0 C3 10.56 3 21.12 3 32 C8.61 32 14.22 32 20 32 C19.67 33.32 19.34 34.64 19 36 C18.38834488 36.01030746 17.77668976 36.02061493 17.14649963 36.03123474 C10.80417684 36.13906745 4.46200286 36.25368342 -1.88012695 36.37231445 C-4.24988708 36.4157381 -6.61968 36.45740749 -8.98950195 36.49731445 C-12.38763333 36.55483768 -15.78559843 36.61858303 -19.18359375 36.68359375 C-20.25024765 36.70030624 -21.31690155 36.71701874 -22.4158783 36.73423767 C-23.39681961 36.75418289 -24.37776093 36.77412811 -25.38842773 36.79467773 C-26.25668686 36.81022202 -27.12494598 36.8257663 -28.01951599 36.84178162 C-30.00080779 36.78462425 -30.00080779 36.78462425 -31 38 C-31.1011692 41.09081465 -31.13968558 44.15882555 -31.1328125 47.25 C-31.13376923 48.17844727 -31.13472595 49.10689453 -31.13571167 50.06347656 C-31.13639355 52.03059965 -31.13453872 53.99772496 -31.13037109 55.96484375 C-31.12502295 58.98703026 -31.13031582 62.00906815 -31.13671875 65.03125 C-31.13605797 66.93750033 -31.13477681 68.84375057 -31.1328125 70.75 C-31.13483673 71.66040039 -31.13686096 72.57080078 -31.13894653 73.50878906 C-31.53891332 77.57663678 -31.53891332 77.57663678 -30 81 C-27.85256451 81.09425595 -25.70198974 81.11742648 -23.55249023 81.11352539 C-22.87934784 81.11367142 -22.20620544 81.11381744 -21.51266479 81.1139679 C-19.27794216 81.11326878 -17.0433019 81.10547652 -14.80859375 81.09765625 C-13.26302638 81.09579206 -11.71745843 81.09436816 -10.17189026 81.09336853 C-6.09642923 81.0895434 -2.02100363 81.07971317 2.05444336 81.06866455 C6.21011882 81.05845032 10.36579999 81.05387089 14.52148438 81.04882812 C22.68100587 81.03809089 30.84049853 81.02101454 39 81 C39.02464513 74.8944529 39.04283371 68.78893449 39.05493164 62.68334961 C39.05997288 60.60456844 39.06680574 58.52579084 39.07543945 56.44702148 C39.08751422 53.46597414 39.09323024 50.48497351 39.09765625 47.50390625 C39.10281754 46.56849503 39.10797882 45.6330838 39.11329651 44.66932678 C39.11340981 43.37810158 39.11340981 43.37810158 39.11352539 42.06079102 C39.115746 41.29912125 39.11796661 40.53745148 39.12025452 39.75270081 C39.19090955 37.97189395 39.19090955 37.97189395 38 37 C35.81707226 36.76518307 33.62796826 36.58636677 31.4375 36.4375 C30.23996094 36.35371094 29.04242188 36.26992188 27.80859375 36.18359375 C26.41833984 36.09271484 26.41833984 36.09271484 25 36 C24.505 34.02 24.505 34.02 24 32 C26.58445773 31.8918134 29.16437352 31.81262763 31.75 31.75 C32.47960937 31.71648438 33.20921875 31.68296875 33.9609375 31.6484375 C37.15690956 31.59032892 39.46650343 31.66721966 42.2121582 33.37988281 C45.00603605 37.47436555 44.55204071 41.46680625 44.49609375 46.3125 C44.49754898 47.31837158 44.49900421 48.32424316 44.50050354 49.3605957 C44.49884484 51.48554381 44.48728688 53.61050397 44.46655273 55.73535156 C44.43760546 58.98814925 44.44594336 62.2393165 44.45898438 65.4921875 C44.45274667 67.55729959 44.44435548 69.62240653 44.43359375 71.6875 C44.43652939 72.66050049 44.43946503 73.63350098 44.44248962 74.63598633 C44.42980545 75.54372803 44.41712128 76.45146973 44.40405273 77.38671875 C44.39864975 78.18295654 44.39324677 78.97919434 44.38768005 79.79956055 C43.89794426 82.5792598 42.91848328 83.95234045 41 86 C37.30459598 87.23180134 33.89696622 87.12412112 30.05078125 87.09765625 C29.27816452 87.0962413 28.50554779 87.09482635 27.70951843 87.09336853 C25.24380611 87.08777466 22.77818485 87.07522333 20.3125 87.0625 C18.63997527 87.05748421 16.96744912 87.05292144 15.29492188 87.04882812 C11.19655134 87.03865847 7.09837752 87.01908194 3 87 C3 92.94 3 98.88 3 105 C-3.07756517 103.78448697 -3.9850732 102.38840836 -8 98 C-10.88333161 99.17469065 -12.27181725 100.29272627 -14.4375 102.625 C-17 105 -17 105 -19.375 105.75 C-23.64022058 104.53136555 -26.11966057 101.25387048 -29 98 C-31.87367759 99.30014166 -33.21898581 100.23583088 -35.4375 102.625 C-38 105 -38 105 -40.375 105.75 C-44.64022058 104.53136555 -47.11966057 101.25387048 -50 98 C-52.87367759 99.30014166 -54.21898581 100.23583088 -56.4375 102.625 C-59 105 -59 105 -61.375 105.75 C-65.64022058 104.53136555 -68.11966057 101.25387048 -71 98 C-73.86992722 99.30119582 -75.25427966 100.26699364 -77.5 102.625 C-80 105 -80 105 -84 105 C-84 89.49 -84 73.98 -84 58 C-82.68 58.33 -81.36 58.66 -80 59 C-79.67 71.54 -79.34 84.08 -79 97 C-77.02 95.02 -75.04 93.04 -73 91 C-68.87407007 92.03148248 -68.02929503 92.62286102 -65.25 95.5625 C-64.63640625 96.20316406 -64.0228125 96.84382813 -63.390625 97.50390625 C-62.70226563 98.24447266 -62.70226563 98.24447266 -62 99 C-58.25363098 97.34481541 -56.19805148 95.20263039 -53.5625 92.14453125 C-52 91 -52 91 -50.046875 91.1015625 C-47.54181513 92.20111168 -46.12539126 93.57891309 -44.25 95.5625 C-43.63640625 96.20316406 -43.0228125 96.84382813 -42.390625 97.50390625 C-41.93171875 97.99761719 -41.4728125 98.49132812 -41 99 C-39.87411986 98.04270084 -38.7493285 97.08412105 -37.625 96.125 C-36.99851563 95.59132813 -36.37203125 95.05765625 -35.7265625 94.5078125 C-34.44163349 93.38567993 -33.20628025 92.20628025 -32 91 C-28.38008264 91.29168756 -26.67636187 92.99615571 -24.25 95.5625 C-23.63640625 96.20316406 -23.0228125 96.84382813 -22.390625 97.50390625 C-21.93171875 97.99761719 -21.4728125 98.49132812 -21 99 C-17.25363098 97.34481541 -15.19805148 95.20263039 -12.5625 92.14453125 C-11 91 -11 91 -8.984375 91.1640625 C-5.98794655 92.42633748 -4.17783654 94.64067708 -2 97 C-1.67 93.37 -1.34 89.74 -1 86 C-2.3317627 86.0314209 -2.3317627 86.0314209 -3.69042969 86.06347656 C-6.99294455 86.13175677 -10.2947067 86.1818487 -13.59765625 86.21972656 C-15.02551121 86.23980982 -16.45328425 86.26708252 -17.88085938 86.30175781 C-19.93640368 86.35042669 -21.99085855 86.37299967 -24.046875 86.390625 C-25.28276367 86.41157227 -26.51865234 86.43251953 -27.79199219 86.45410156 C-31.58537165 85.91713917 -32.68888744 84.98212544 -35 82 C-36.27861615 79.44276771 -36.11336609 77.63262898 -36.09765625 74.7734375 C-36.09515869 73.84450684 -36.09266113 72.91557617 -36.09008789 71.95849609 C-36.08098389 70.77594238 -36.07187988 69.59338867 -36.0625 68.375 C-36.041875 64.62125 -36.02125 60.8675 -36 57 C-46.23 57 -56.46 57 -67 57 C-67.33 55.68 -67.66 54.36 -68 53 C-57.11 53 -46.22 53 -35 53 C-35 49.04 -35 45.08 -35 41 C-45.89 41 -56.78 41 -68 41 C-68 40.01 -68 39.02 -68 38 C-57.11 38 -46.22 38 -35 38 C-34.34 36.68 -33.68 35.36 -33 34 C-31 32 -31 32 -28.01904297 31.77294922 C-26.77268066 31.78342285 -25.52631836 31.79389648 -24.2421875 31.8046875 C-23.24761032 31.80893234 -23.24761032 31.80893234 -22.23294067 31.81326294 C-20.11344417 31.82446565 -17.99436896 31.84956949 -15.875 31.875 C-14.43880818 31.88502972 -13.00260975 31.89415559 -11.56640625 31.90234375 C-8.04413372 31.924405 -4.52210797 31.95893506 -1 32 C-1.00523682 31.06615479 -1.01047363 30.13230957 -1.01586914 29.17016602 C-1.0328762 25.71687204 -1.04543302 22.26362233 -1.05493164 18.81030273 C-1.05997121 17.31355082 -1.06680287 15.81680384 -1.07543945 14.32006836 C-1.08752159 12.17300193 -1.09323191 10.02600038 -1.09765625 7.87890625 C-1.10289307 6.5854126 -1.10812988 5.29191895 -1.11352539 3.95922852 C-1 1 -1 1 0 0 Z " fill="#090C09" transform="translate(84,23)"/>
<path d="M0 0 C28.71 0 57.42 0 87 0 C87 5.94 87 11.88 87 18 C86.01 18 85.02 18 84 18 C83.67 17.67 83.34 17.34 83 17 C83 12.71 83 8.42 83 4 C56.93 4 30.86 4 4 4 C4 27.76 4 51.52 4 76 C2.02 76.495 2.02 76.495 0 77 C0 51.59 0 26.18 0 0 Z " fill="#0B0C0C" transform="translate(0,0)"/>
<path d="M0 0 C1.1055189 0.93590504 2.20935453 1.87379858 3.3125 2.8125 C3.92738281 3.33457031 4.54226562 3.85664062 5.17578125 4.39453125 C6.85424679 5.87172469 8.43882034 7.40039131 10 9 C12.84323792 7.84164381 14.31388887 6.6782639 16.5 4.4375 C19.87112887 1.15064935 19.87112887 1.15064935 23 1 C25.140625 2.65234375 25.140625 2.65234375 27.25 4.9375 C28.30960938 6.06478516 28.30960938 6.06478516 29.390625 7.21484375 C29.92171875 7.80394531 30.4528125 8.39304687 31 9 C32.1055189 8.06409496 33.20935453 7.12620142 34.3125 6.1875 C34.92738281 5.66542969 35.54226562 5.14335938 36.17578125 4.60546875 C38.00717324 3.10621581 38.00717324 3.10621581 39.18554688 1.40429688 C41.99483954 -0.76995655 44.36546533 -0.23620203 47.85546875 -0.07421875 C48.51710526 -0.04777786 49.17874176 -0.02133698 49.86042786 0.00590515 C51.97038073 0.09356873 54.07859224 0.20274361 56.1875 0.3125 C57.61907854 0.37576972 59.05071987 0.43763544 60.48242188 0.49804688 C63.98915579 0.64908903 67.4946482 0.81943564 71 1 C71 4.96 71 8.92 71 13 C69.30729167 11.40494792 67.61458333 9.80989583 65.921875 8.21484375 C64.09645378 6.8039557 64.09645378 6.8039557 62 7.09375 C59.53761803 8.20951683 58.10373996 9.6018135 56.25 11.5625 C55.63640625 12.20316406 55.0228125 12.84382813 54.390625 13.50390625 C53.70226562 14.24447266 53.70226562 14.24447266 53 15 C49.25363098 13.34481541 47.19805148 11.20263039 44.5625 8.14453125 C43.05941074 6.79061793 43.05941074 6.79061793 41.046875 7.1015625 C38.54181513 8.20111168 37.12539126 9.57891309 35.25 11.5625 C34.63640625 12.20316406 34.0228125 12.84382813 33.390625 13.50390625 C32.70226563 14.24447266 32.70226563 14.24447266 32 15 C30.87411986 14.04270084 29.7493285 13.08412105 28.625 12.125 C27.99851563 11.59132813 27.37203125 11.05765625 26.7265625 10.5078125 C25.44163349 9.38567993 24.20628025 8.20628025 23 7 C19.38008264 7.29168756 17.67636187 8.99615571 15.25 11.5625 C14.63640625 12.20316406 14.0228125 12.84382813 13.390625 13.50390625 C12.93171875 13.99761719 12.4728125 14.49132812 12 15 C8.25363098 13.34481541 6.19805148 11.20263039 3.5625 8.14453125 C2.05399142 6.77729856 2.05399142 6.77729856 0.015625 7.1640625 C-2.11915152 8.04941555 -3.52547514 9.03394387 -5.25 10.5625 C-6.1575 11.366875 -7.065 12.17125 -8 13 C-8.36795695 9.7171341 -8.3231932 8.41336988 -6.25 5.76171875 C-5.13625 4.73498047 -5.13625 4.73498047 -4 3.6875 C-3.2575 2.99011719 -2.515 2.29273437 -1.75 1.57421875 C-1.1725 1.05472656 -0.595 0.53523438 0 0 Z " fill="#B9DEE9" transform="translate(12,108)"/>
<path d="M0 0 C0.99 0.495 0.99 0.495 2 1 C2.02464513 7.1055471 2.04283371 13.21106551 2.05493164 19.31665039 C2.05997288 21.39543156 2.06680574 23.47420916 2.07543945 25.55297852 C2.08751422 28.53402586 2.09323024 31.51502649 2.09765625 34.49609375 C2.10281754 35.43150497 2.10797882 36.3669162 2.11329651 37.33067322 C2.11337204 38.19149002 2.11344757 39.05230682 2.11352539 39.93920898 C2.115746 40.70087875 2.11796661 41.46254852 2.12025452 42.24729919 C2 44 2 44 1 45 C-1.14743549 45.09425595 -3.29801026 45.11742648 -5.44750977 45.11352539 C-6.45722336 45.11374443 -6.45722336 45.11374443 -7.48733521 45.1139679 C-9.72205784 45.11326878 -11.9566981 45.10547652 -14.19140625 45.09765625 C-15.73697362 45.09579206 -17.28254157 45.09436816 -18.82810974 45.09336853 C-22.90357077 45.0895434 -26.97899637 45.07971317 -31.05444336 45.06866455 C-35.21011882 45.05845032 -39.36579999 45.05387089 -43.52148438 45.04882812 C-51.68100587 45.03809089 -59.84049853 45.02101454 -68 45 C-68.33 44.34 -68.66 43.68 -69 43 C-43.755 42.505 -43.755 42.505 -18 42 C-18.99 40.68 -19.98 39.36 -21 38 C-20.77962372 34.32706204 -20.63033454 32.63033454 -18 30 C-14.84765625 29.69921875 -14.84765625 29.69921875 -11.0625 29.6875 C-9.81597656 29.67074219 -8.56945312 29.65398437 -7.28515625 29.63671875 C-4 30 -4 30 -1 33 C-0.67 22.11 -0.34 11.22 0 0 Z " fill="#5DB13A" transform="translate(122,60)"/>
<path d="M0 0 C1.08667969 -0.01740234 1.08667969 -0.01740234 2.1953125 -0.03515625 C5.09429063 -0.01911025 7.42033874 0.04736537 9.9765625 1.4921875 C11.50786277 4.30931243 11.39651241 6.69116368 11.375 9.875 C11.38273437 11.0196875 11.39046875 12.164375 11.3984375 13.34375 C11 16.375 11 16.375 9.9765625 18.2578125 C6.80887208 20.04824621 3.53733684 19.80664774 0 19.75 C-1.08667969 19.76740234 -1.08667969 19.76740234 -2.1953125 19.78515625 C-5.09429063 19.76911025 -7.42033874 19.70263463 -9.9765625 18.2578125 C-11.50786277 15.44068757 -11.39651241 13.05883632 -11.375 9.875 C-11.38660156 8.15796875 -11.38660156 8.15796875 -11.3984375 6.40625 C-11 3.375 -11 3.375 -9.9765625 1.4921875 C-6.80887208 -0.29824621 -3.53733684 -0.05664774 0 0 Z " fill="#0C0F05" transform="translate(66,60.625)"/>
<path d="M0 0 C0.88429688 -0.02578125 1.76859375 -0.0515625 2.6796875 -0.078125 C5.125 0.25 5.125 0.25 6.921875 1.328125 C8.762083 4.26767804 8.52143287 6.82074082 8.5 10.25 C8.50773437 11.4875 8.51546875 12.725 8.5234375 14 C8.125 17.25 8.125 17.25 6.921875 19.171875 C4.50647407 20.62111556 2.79969733 20.58162383 0 20.5 C-1.33417969 20.47679687 -1.33417969 20.47679687 -2.6953125 20.453125 C-4.875 20.25 -4.875 20.25 -5.875 19.25 C-5.9733721 17.91956375 -6.00578592 16.58406656 -6.0078125 15.25 C-6.00910156 14.445625 -6.01039062 13.64125 -6.01171875 12.8125 C-6.00785156 11.966875 -6.00398438 11.12125 -6 10.25 C-6.00386719 9.404375 -6.00773437 8.55875 -6.01171875 7.6875 C-6.01042969 6.883125 -6.00914063 6.07875 -6.0078125 5.25 C-6.00668457 4.5075 -6.00555664 3.765 -6.00439453 3 C-5.7320165 -0.68378442 -3.11802501 0.05422652 0 0 Z " fill="#0B0C0D" transform="translate(22.875,10.75)"/>
<path d="M0 0 C1.24652344 -0.01675781 2.49304688 -0.03351563 3.77734375 -0.05078125 C7.0625 0.3125 7.0625 0.3125 8.98046875 1.64453125 C10.67762451 4.26072443 10.44147829 6.28067371 10.0625 9.3125 C8.9765625 10.97265625 8.9765625 10.97265625 7.0625 12.3125 C3.8125 12.74609375 3.8125 12.74609375 0.0625 12.75 C-1.175 12.76933594 -2.4125 12.78867188 -3.6875 12.80859375 C-6.9375 12.3125 -6.9375 12.3125 -8.88671875 10.48046875 C-10.36896454 7.42230364 -9.84549359 5.52540041 -8.9375 2.3125 C-6.07413629 -0.55086371 -3.98521654 0.01233813 0 0 Z " fill="#191108" transform="translate(110.9375,89.6875)"/>
<path d="M0 0 C0.99 0 1.98 0 3 0 C3.07347656 1.37285156 3.07347656 1.37285156 3.1484375 2.7734375 C3.22320312 3.96195312 3.29796875 5.15046875 3.375 6.375 C3.44460937 7.55835938 3.51421875 8.74171875 3.5859375 9.9609375 C3.70217346 13.10562319 3.70217346 13.10562319 6 15 C6 16.32 6 17.64 6 19 C5.34 19.33 4.68 19.66 4 20 C3.67 30.23 3.34 40.46 3 51 C2.01 51 1.02 51 0 51 C0 34.17 0 17.34 0 0 Z " fill="#C0E8F3" transform="translate(80,4)"/>
<path d="M0 0 C4.62 0 9.24 0 14 0 C14 3.63 14 7.26 14 11 C9.38 11 4.76 11 0 11 C0 7.37 0 3.74 0 0 Z " fill="#FBC84B" transform="translate(59,65)"/>
<path d="M0 0 C11.22 0 22.44 0 34 0 C34 1.32 34 2.64 34 4 C22.45 4 10.9 4 -1 4 C-0.67 2.68 -0.34 1.36 0 0 Z " fill="#1C1F20" transform="translate(17,45)"/>
<path d="M0 0 C0.99 0.33 1.98 0.66 3 1 C3 5.95 3 10.9 3 16 C5.97 16 8.94 16 12 16 C12.33 17.32 12.66 18.64 13 20 C8.38 20 3.76 20 -1 20 C-1.02683697 16.85411056 -1.04675902 13.70844729 -1.0625 10.5625 C-1.07087891 9.66466797 -1.07925781 8.76683594 -1.08789062 7.84179688 C-1.09111328 6.98779297 -1.09433594 6.13378906 -1.09765625 5.25390625 C-1.10551147 4.06776733 -1.10551147 4.06776733 -1.11352539 2.85766602 C-1 1 -1 1 0 0 Z " fill="#121415" transform="translate(57,11)"/>
<path d="M0 0 C0.99 0.33 1.98 0.66 3 1 C3 6.28 3 11.56 3 17 C6.3 17 9.6 17 13 17 C13 17.99 13 18.98 13 20 C10.85423363 20.02685938 8.70837355 20.04633088 6.5625 20.0625 C5.36753906 20.07410156 4.17257813 20.08570312 2.94140625 20.09765625 C0 20 0 20 -1 19 C-1.0983721 17.66956375 -1.13078592 16.33406656 -1.1328125 15 C-1.13410156 14.195625 -1.13539062 13.39125 -1.13671875 12.5625 C-1.13285156 11.716875 -1.12898438 10.87125 -1.125 10 C-1.12886719 9.154375 -1.13273437 8.30875 -1.13671875 7.4375 C-1.13542969 6.633125 -1.13414063 5.82875 -1.1328125 5 C-1.13168457 4.2575 -1.13055664 3.515 -1.12939453 2.75 C-1 1 -1 1 0 0 Z " fill="#090A0A" transform="translate(41,11)"/>
<path d="M0 0 C4.95 0 9.9 0 15 0 C10.703125 5.46875 10.703125 5.46875 9 7 C7.68 7 6.36 7 5 7 C2.94505576 4.88016279 1.60675163 2.49939142 0 0 Z " fill="#DBF4FE" transform="translate(57,110)"/>
<path d="M0 0 C0.99 0 1.98 0 3 0 C3 6.6 3 13.2 3 20 C2.01 20 1.02 20 0 20 C0 13.4 0 6.8 0 0 Z " fill="#020202" transform="translate(34,11)"/>
<path d="M0 0 C4.62 0 9.24 0 14 0 C14.33 1.32 14.66 2.64 15 4 C10.05 4 5.1 4 0 4 C0 2.68 0 1.36 0 0 Z " fill="#1E2123" transform="translate(56,45)"/>
<path d="M0 0 C3.63 0 7.26 0 11 0 C11 1.32 11 2.64 11 4 C7.04 4 3.08 4 -1 4 C-0.67 2.68 -0.34 1.36 0 0 Z " fill="#080F05" transform="translate(89,83)"/>
<path d="M0 0 C3.63 0 7.26 0 11 0 C11 1.32 11 2.64 11 4 C7.37 4 3.74 4 0 4 C0 2.68 0 1.36 0 0 Z " fill="#060C04" transform="translate(105,83)"/>
<path d="M0 0 C3.96 0 7.92 0 12 0 C12 1.32 12 2.64 12 4 C8.04 4 4.08 4 0 4 C0 2.68 0 1.36 0 0 Z " fill="#080E05" transform="translate(72,83)"/>
<path d="M0 0 C3.96 0 7.92 0 12 0 C12 1.32 12 2.64 12 4 C8.04 4 4.08 4 0 4 C0 2.68 0 1.36 0 0 Z " fill="#080E05" transform="translate(56,83)"/>
<path d="M0 0 C2.97 0 5.94 0 9 0 C9 1.32 9 2.64 9 4 C6.36 4 3.72 4 1 4 C0.67 2.68 0.34 1.36 0 0 Z " fill="#0D1809" transform="translate(67,94)"/>
<path d="M0 0 C2.97 0 5.94 0 9 0 C8.67 1.32 8.34 2.64 8 4 C5.36 4 2.72 4 0 4 C0 2.68 0 1.36 0 0 Z " fill="#0B1508" transform="translate(79,94)"/>
<path d="M0 0 C2.97 0 5.94 0 9 0 C8.67 1.32 8.34 2.64 8 4 C5.36 4 2.72 4 0 4 C0 2.68 0 1.36 0 0 Z " fill="#0B1508" transform="translate(56,94)"/>
<path d="M0 0 C1.98 0 3.96 0 6 0 C5.67 1.65 5.34 3.3 5 5 C3.35 5 1.7 5 0 5 C0 3.35 0 1.7 0 0 Z " fill="#C6DCE4" transform="translate(21,23)"/>
<path d="M0 0 C0.99 0.33 1.98 0.66 3 1 C2.67 2.65 2.34 4.3 2 6 C0.68 5.67 -0.64 5.34 -2 5 C-1.125 1.125 -1.125 1.125 0 0 Z " fill="#DCB145" transform="translate(107,93)"/>
<path d="M0 0 C1.98 0 3.96 0 6 0 C6 1.32 6 2.64 6 4 C4.02 4 2.04 4 0 4 C0 2.68 0 1.36 0 0 Z " fill="#D8EFF9" transform="translate(21,15)"/>
</svg>
