<?xml version="1.0" encoding="UTF-8"?>
<svg version="1.1" xmlns="http://www.w3.org/2000/svg" width="128" height="128" viewBox="0 0 128 128">
<path d="M0 0 C1.05499695 -0.02236725 2.1099939 -0.0447345 3.19696045 -0.06777954 C4.33240295 -0.07425507 5.46784546 -0.08073059 6.63769531 -0.08740234 C7.81164856 -0.09975922 8.98560181 -0.11211609 10.19512939 -0.12484741 C12.67984023 -0.14441807 15.16462866 -0.15564651 17.64941406 -0.15917969 C21.4385031 -0.17323849 25.22427162 -0.24054171 29.01269531 -0.31005859 C31.42934734 -0.32246062 33.84601824 -0.33167836 36.26269531 -0.33740234 C37.39004089 -0.36412018 38.51738647 -0.39083801 39.67889404 -0.41836548 C45.4090128 -0.36923164 48.92561168 0.02656372 53.34033203 3.85766602 C54.48867139 5.03346671 55.61720474 6.22927136 56.71582031 7.45166016 C57.52792969 8.20833984 58.34003906 8.96501953 59.17675781 9.74462891 C60.12421875 10.68242187 60.12421875 10.68242187 61.09082031 11.63916016 C61.73792969 12.27208984 62.38503906 12.90501953 63.05175781 13.55712891 C66.19031772 17.13037199 66.96612589 19.92538011 66.91113281 24.65478516 C66.9046875 25.63447266 66.89824219 26.61416016 66.89160156 27.62353516 C66.86646484 29.14720703 66.86646484 29.14720703 66.84082031 30.70166016 C66.83179687 31.73291016 66.82277344 32.76416016 66.81347656 33.82666016 C66.78994042 36.36856302 66.75706054 38.90999296 66.71582031 41.45166016 C67.48925781 41.40525391 68.26269531 41.35884766 69.05957031 41.31103516 C75.86716893 41.07512827 81.14088711 41.27381865 86.71582031 45.45166016 C90.91918213 49.9783575 91.84064783 52.54736799 91.89282227 58.64208984 C91.91207512 60.59486847 91.91207512 60.59486847 91.93171692 62.58709717 C91.9398853 64.01590596 91.94732885 65.44471906 91.95410156 66.87353516 C91.95817709 67.59236122 91.96225262 68.31118729 91.96645164 69.05179596 C91.98731633 72.85825819 92.0016149 76.66468435 92.01098633 80.47119141 C92.02203711 84.39655153 92.05641964 88.32134262 92.09615803 92.24650192 C92.12235131 95.2697655 92.13068064 98.29289424 92.13426781 101.31626129 C92.13912873 102.76270632 92.15072879 104.20914553 92.1693058 105.65547943 C92.19374462 107.68473069 92.19030779 109.71425896 92.18579102 111.74365234 C92.19165726 112.89677917 92.1975235 114.04990601 92.2035675 115.23797607 C91.43205954 120.32131206 88.87196021 123.40200539 85.1340332 126.7956543 C80.36786511 129.10469781 76.25487456 129.00762552 71.02441406 128.94775391 C69.49011497 128.94993675 69.49011497 128.94993675 67.92481995 128.9521637 C65.76894269 128.95050822 63.61305319 128.93898643 61.45727539 128.91821289 C58.16078455 128.88922579 54.86589982 128.89761852 51.56933594 128.91064453 C49.47102085 128.90440762 47.37271082 128.89601705 45.27441406 128.88525391 C44.29097519 128.88818954 43.30753632 128.89112518 42.29429626 128.89414978 C35.3935688 128.79913564 31.95469349 127.74260016 27.02832031 122.70166016 C24.48516358 119.12749394 23.64490971 116.67479379 22.71582031 112.45166016 C21.78120861 115.15164953 21.74082447 116.58501565 22.27832031 119.45166016 C22.75134247 122.69524064 22.5717618 123.81426962 20.71582031 126.45166016 C18.42537377 127.59688343 17.09248197 127.59562541 14.54492188 127.62866211 C13.25282806 127.64791496 13.25282806 127.64791496 11.93463135 127.66755676 C11.00132996 127.6749437 10.06802856 127.68233063 9.10644531 127.68994141 C8.14687927 127.69801315 7.18731323 127.7060849 6.19866943 127.71440125 C4.16436574 127.72824756 2.13003876 127.73896726 0.09570312 127.74682617 C-3.00793865 127.76401483 -6.1105086 127.80789329 -9.21386719 127.85205078 C-11.19042185 127.86217982 -13.16698558 127.87069526 -15.14355469 127.87744141 C-16.53136139 127.90370354 -16.53136139 127.90370354 -17.94720459 127.93049622 C-23.57941583 127.91164344 -26.83217333 127.24175308 -31.28417969 123.45166016 C-36.09779791 117.98755298 -36.64367541 114.68830273 -36.55761719 107.50244141 C-36.15148284 102.97114248 -35.16401113 100.99606809 -32.28417969 97.45166016 C-28.69610193 94.66278301 -25.92706143 93.45166016 -21.28417969 93.45166016 C-21.33058594 92.48744141 -21.37699219 91.52322266 -21.42480469 90.52978516 C-21.46089844 89.26650391 -21.49699219 88.00322266 -21.53417969 86.70166016 C-21.58058594 85.44869141 -21.62699219 84.19572266 -21.67480469 82.90478516 C-21.28417969 79.45166016 -21.28417969 79.45166016 -19.58105469 76.99853516 C-16.86438916 75.16894409 -15.4815823 75.32047787 -12.28417969 75.45166016 C-12.29084152 74.6381308 -12.29750336 73.82460144 -12.30436707 72.98641968 C-12.36456603 65.30647932 -12.41019858 57.62665395 -12.4396162 49.94653893 C-12.45524872 45.99843628 -12.47644249 42.05052918 -12.51049805 38.10253906 C-12.5431782 34.28998527 -12.56105085 30.47761915 -12.56881142 26.66493607 C-12.57433945 25.21291781 -12.58513442 23.76090942 -12.60136986 22.30897141 C-12.62326015 20.2695601 -12.62614192 18.23091679 -12.62475586 16.19140625 C-12.63141769 15.03224701 -12.63807953 13.87308777 -12.64494324 12.67880249 C-12.13244991 8.09438999 -10.70920247 4.86865141 -7.42694092 1.60488892 C-4.79443005 0.18807812 -2.98458915 0.04656424 0 0 Z " fill="#090804" transform="translate(36.2841796875,-0.45166015625)"/>
<path d="M0 0 C0.86462357 -0.00960754 1.72924713 -0.01921509 2.62007141 -0.02911377 C4.02472908 -0.03548859 4.02472908 -0.03548859 5.45776367 -0.04199219 C6.41970139 -0.04769226 7.3816391 -0.05339233 8.37272644 -0.05926514 C10.4112335 -0.06872231 12.44975589 -0.07525196 14.48828125 -0.07910156 C17.60273047 -0.08879559 20.71651663 -0.11980756 23.83081055 -0.15136719 C25.81062433 -0.15789835 27.79044284 -0.16314838 29.77026367 -0.16699219 C30.70062943 -0.17933899 31.63099518 -0.19168579 32.58955383 -0.20440674 C37.46866718 -0.18765461 40.91621732 -0.11093724 44.81323242 3.16113281 C47.87908395 6.46673952 48.19151637 8.75495662 48.20141602 13.21142578 C48.2108725 14.43304413 48.22032898 15.65466248 48.23007202 16.91329956 C48.22399933 18.23000641 48.21792664 19.54671326 48.21166992 20.90332031 C48.21369217 22.27328649 48.21660487 23.64325161 48.22036743 25.01321411 C48.22478671 27.88309996 48.21837487 30.75270539 48.2043457 33.62255859 C48.18728594 37.29000216 48.19707643 40.95678549 48.2150631 44.62420464 C48.22593956 47.45363271 48.22243646 50.28290611 48.21467972 53.11233902 C48.21172114 55.11858806 48.22079069 57.12484325 48.23007202 59.131073 C48.22061554 60.35899567 48.21115906 61.58691833 48.20141602 62.85205078 C48.19902924 63.92808563 48.19664246 65.00412048 48.19418335 66.11276245 C47.63445985 70.59167144 46.12667488 73.98921909 42.74462891 77.00683594 C38.46716232 78.69117524 34.47130336 78.62888202 29.91088867 78.62988281 C28.95556747 78.63749634 28.00024628 78.64510986 27.01597595 78.6529541 C24.99960946 78.66373863 22.98318718 78.66661492 20.96679688 78.66210938 C17.88926672 78.66113709 14.81423095 78.70277678 11.73706055 78.74707031 C9.7741751 78.75227773 7.81128102 78.7549655 5.84838867 78.75488281 C4.93259537 78.77127808 4.01680206 78.78767334 3.07325745 78.80456543 C-1.310489 78.75736933 -4.26862275 78.56440751 -7.75146484 75.74902344 C-11.27982917 71.99958365 -11.32128682 70.21075664 -11.37963867 65.15429688 C-11.3957016 63.89248596 -11.41176453 62.63067505 -11.42831421 61.33062744 C-11.4398024 59.94601108 -11.45041081 58.56138719 -11.46020508 57.17675781 C-11.46552876 56.47999687 -11.47085243 55.78323593 -11.47633743 55.06536102 C-11.50306709 51.37561646 -11.52244035 47.68590566 -11.53686523 43.99609375 C-11.55019301 40.94630867 -11.57802234 37.89719454 -11.61889648 34.84765625 C-11.66829043 31.16239649 -11.69299453 27.4777443 -11.70009232 23.79216766 C-11.70679373 22.39035156 -11.72198724 20.98854842 -11.74598312 19.58692169 C-11.94518883 7.24438613 -11.94518883 7.24438613 -8.77905273 3.31640625 C-5.54604429 0.62842372 -4.08902045 0.03663382 0 0 Z " fill="#73BF88" transform="translate(76.186767578125,45.8388671875)"/>
<path d="M0 0 C0.96061844 0.00030212 1.92123688 0.00060425 2.91096497 0.00091553 C4.44716743 0.03188324 4.44716743 0.03188324 6.0144043 0.06347656 C7.60190742 0.07196625 7.60190742 0.07196625 9.22148132 0.08062744 C12.59432631 0.10297808 15.96610035 0.1531738 19.33862305 0.20410156 C21.62832122 0.22416818 23.91803609 0.24241866 26.20776367 0.25878906 C31.8142947 0.30283888 37.42002744 0.371859 43.02612305 0.45410156 C43.52112305 8.86910156 43.52112305 8.86910156 44.02612305 17.45410156 C49.30612305 17.78410156 54.58612305 18.11410156 60.02612305 18.45410156 C60.02612305 25.05410156 60.02612305 31.65410156 60.02612305 38.45410156 C58.07448242 38.47988281 56.1228418 38.50566406 54.11206055 38.53222656 C51.5417258 38.58851127 48.97141416 38.64585851 46.40112305 38.70410156 C45.11592773 38.71828125 43.83073242 38.73246094 42.5065918 38.74707031 C33.38594426 38.79049622 33.38594426 38.79049622 26.02612305 43.45410156 C23.44657745 47.11033935 22.64498294 49.61329077 22.59375 54.07055664 C22.57395584 55.17132034 22.55416168 56.27208405 22.5337677 57.40620422 C22.52418282 59.17208138 22.52418282 59.17208138 22.5144043 60.97363281 C22.49645309 62.18734055 22.47850189 63.40104828 22.46000671 64.65153503 C22.40588004 68.52318868 22.37199928 72.39471884 22.33862305 76.26660156 C22.30545219 78.89357188 22.27096275 81.52052589 22.23510742 84.14746094 C22.15015194 90.5828971 22.08181177 97.01834919 22.02612305 103.45410156 C20.70612305 103.45410156 19.38612305 103.45410156 18.02612305 103.45410156 C18.03772461 102.82761719 18.04932617 102.20113281 18.0612793 101.55566406 C18.07030273 100.73839844 18.07932617 99.92113281 18.08862305 99.07910156 C18.10022461 98.26699219 18.11182617 97.45488281 18.1237793 96.61816406 C18.17078639 94.40473014 18.17078639 94.40473014 17.02612305 92.45410156 C17.35612305 91.79410156 17.68612305 91.13410156 18.02612305 90.45410156 C18.17641982 87.95975325 18.25734414 85.51184858 18.27612305 83.01660156 C18.29674805 82.33533203 18.31737305 81.6540625 18.33862305 80.95214844 C18.40799142 77.14377862 18.40799142 77.14377862 16.86572266 73.76708984 C14.30244479 71.93758641 12.39567382 72.02185666 9.2644043 71.94238281 C8.14614258 71.90693359 7.02788086 71.87148437 5.87573242 71.83496094 C4.70848633 71.81240234 3.54124023 71.78984375 2.33862305 71.76660156 C1.15977539 71.73244141 -0.01907227 71.69828125 -1.23364258 71.66308594 C-4.1469592 71.58052231 -7.05997161 71.51139834 -9.97387695 71.45410156 C-10.08974092 62.7875822 -10.17857622 54.12132951 -10.23293781 45.45420456 C-10.25902927 41.4296406 -10.29441752 37.40560659 -10.35107422 33.38134766 C-10.40541247 29.49744716 -10.43530089 25.61405627 -10.44826317 21.72980499 C-10.45750002 20.24817125 -10.47553807 18.76656533 -10.50252724 17.28514862 C-10.53884595 15.20901806 -10.54382176 13.134991 -10.54150391 11.05859375 C-10.55260696 9.87722839 -10.56371002 8.69586304 -10.57514954 7.47869873 C-9.97387695 4.45410156 -9.97387695 4.45410156 -7.74926758 2.06970215 C-4.81095474 0.35926186 -3.35295548 -0.03538739 0 0 Z " fill="#FAD5A6" transform="translate(38.973876953125,3.5458984375)"/>
<path d="M0 0 C3.16961356 1.28133314 4.57820229 2.5200233 6.8125 5.0625 C8.578959 9.43216175 8.90841161 13.36421696 8 18 C5.72155001 21.97654007 3.37009421 24.54330193 -1 26 C-4.76854983 26.50247331 -8.41269044 26.83718859 -11.8515625 25.0234375 C-15.38327421 22.18762958 -17.55274576 19.32658213 -18.40625 14.88671875 C-18.60407783 10.24600759 -18.1773017 7.61064957 -15.125 4 C-10.60173761 -0.71992598 -6.31347033 -0.54769853 0 0 Z " fill="#E48100" transform="translate(29,97)"/>
<path d="M0 0 C0.84477905 0.00202423 1.68955811 0.00404846 2.55993652 0.00613403 C3.42179565 0.00517731 4.28365479 0.00422058 5.17163086 0.00323486 C6.99751864 0.00255304 8.82340884 0.00440749 10.64929199 0.00857544 C13.45419731 0.01392367 16.25894248 0.00863054 19.06384277 0.00222778 C20.83337438 0.00288856 22.60290588 0.00416973 24.37243652 0.00613403 C25.21721558 0.0041098 26.06199463 0.00208557 26.93237305 0 C32.85123621 0.02399622 32.85123621 0.02399622 33.96618652 1.13894653 C34.13415527 3.13504028 34.13415527 3.13504028 34.15368652 5.57644653 C34.16786621 6.37953247 34.1820459 7.18261841 34.19665527 8.01004028 C33.96618652 10.13894653 33.96618652 10.13894653 31.96618652 12.13894653 C29.62780762 12.36599731 29.62780762 12.36599731 26.73962402 12.33425903 C25.19274902 12.32459106 25.19274902 12.32459106 23.61462402 12.31472778 C22.53438965 12.29796997 21.45415527 12.28121216 20.34118652 12.26394653 C19.25321777 12.2549231 18.16524902 12.24589966 17.04431152 12.23660278 C14.35138501 12.21298062 11.65889397 12.18004209 8.96618652 12.13894653 C8.63618652 13.12894653 8.30618652 14.11894653 7.96618652 15.13894653 C6.64618652 14.80894653 5.32618652 14.47894653 3.96618652 14.13894653 C3.96618652 13.47894653 3.96618652 12.81894653 3.96618652 12.13894653 C3.25591309 12.1505481 2.54563965 12.16214966 1.81384277 12.17410278 C0.89474121 12.18312622 -0.02436035 12.19214966 -0.97131348 12.20144653 C-1.88783691 12.2130481 -2.80436035 12.22464966 -3.74865723 12.23660278 C-6.03381348 12.13894653 -6.03381348 12.13894653 -7.03381348 11.13894653 C-7.13205285 9.47465602 -7.16354979 7.80612722 -7.15881348 6.13894653 C-7.1613916 5.23144653 -7.16396973 4.32394653 -7.16662598 3.38894653 C-6.89617317 -1.19284225 -3.89705435 0.01579941 0 0 Z " fill="#3B95DB" transform="translate(81.0338134765625,53.861053466796875)"/>
<path d="M0 0 C2.27734375 -0.3984375 2.27734375 -0.3984375 4.9375 -0.375 C6.25041016 -0.38660156 6.25041016 -0.38660156 7.58984375 -0.3984375 C10.51354857 0.08489782 11.21756309 0.6703126 13 3 C13.63974583 6.78165164 13.46326536 10.60783075 13.4375 14.4375 C13.45748047 15.48744141 13.47746094 16.53738281 13.49804688 17.61914062 C13.49740234 18.63041016 13.49675781 19.64167969 13.49609375 20.68359375 C13.49794678 21.60712646 13.4997998 22.53065918 13.50170898 23.48217773 C12.85228702 26.74129632 11.54542013 27.93455136 9 30 C6.04083618 30.77244967 4.13268622 30.39780142 1 30 C-1.1675501 27.86315609 -1.92572373 26.50230238 -2.37231445 23.48217773 C-2.3693335 22.55864502 -2.36635254 21.6351123 -2.36328125 20.68359375 C-2.36263672 19.67232422 -2.36199219 18.66105469 -2.36132812 17.61914062 C-2.34521484 16.56919922 -2.32910156 15.51925781 -2.3125 14.4375 C-2.31572266 13.38369141 -2.31894531 12.32988281 -2.32226562 11.24414062 C-2.26720715 3.40081073 -2.26720715 3.40081073 0 0 Z " fill="#090F0A" transform="translate(106,90)"/>
<path d="M0 0 C0.89726303 -0.00145523 1.79452606 -0.00291046 2.71897888 -0.00440979 C4.61273451 -0.00275204 6.50650377 0.00879538 8.40014648 0.02954102 C11.3018498 0.05852638 14.20172947 0.05014172 17.10351562 0.03710938 C18.94401931 0.043346 20.78451722 0.05173634 22.625 0.0625 C23.49379288 0.05956436 24.36258575 0.05662872 25.25770569 0.05360413 C26.46927589 0.07263039 26.46927589 0.07263039 27.70532227 0.09204102 C28.41495621 0.097444 29.12459015 0.10284698 29.85572815 0.1084137 C32.33097884 0.61604318 33.22547978 1.50717773 34.74609375 3.49609375 C35.14453125 6.52734375 35.14453125 6.52734375 35.12109375 9.99609375 C35.13269531 11.713125 35.13269531 11.713125 35.14453125 13.46484375 C34.74609375 16.49609375 34.74609375 16.49609375 33.58129883 18.16723633 C30.99517065 20.0398312 29.15382921 19.8373283 25.984375 19.7890625 C24.86611328 19.77939453 23.74785156 19.76972656 22.59570312 19.75976562 C21.42845703 19.73462891 20.26121094 19.70949219 19.05859375 19.68359375 C17.87974609 19.67005859 16.70089844 19.65652344 15.48632812 19.64257812 C12.57245964 19.60718701 9.6595043 19.55781184 6.74609375 19.49609375 C6.74609375 18.50609375 6.74609375 17.51609375 6.74609375 16.49609375 C7.43759521 16.4710376 8.12909668 16.44598145 8.84155273 16.42016602 C11.95577241 16.30457214 15.06966164 16.18168133 18.18359375 16.05859375 C19.81651367 15.99961914 19.81651367 15.99961914 21.48242188 15.93945312 C22.51689453 15.89755859 23.55136719 15.85566406 24.6171875 15.8125 C25.5755249 15.77584229 26.5338623 15.73918457 27.52124023 15.70141602 C29.717483 15.73774951 29.717483 15.73774951 30.74609375 14.49609375 C30.74609375 11.52609375 30.74609375 8.55609375 30.74609375 5.49609375 C17.87609375 5.49609375 5.00609375 5.49609375 -8.25390625 5.49609375 C-8.25390625 8.79609375 -8.25390625 12.09609375 -8.25390625 15.49609375 C-4.95390625 15.82609375 -1.65390625 16.15609375 1.74609375 16.49609375 C1.74609375 17.48609375 1.74609375 18.47609375 1.74609375 19.49609375 C-0.19018394 19.60416506 -2.12818381 19.68171625 -4.06640625 19.74609375 C-5.68482422 19.81570312 -5.68482422 19.81570312 -7.3359375 19.88671875 C-10.25390625 19.49609375 -10.25390625 19.49609375 -12.11328125 17.82421875 C-13.47498969 15.04484124 -13.68716284 13.0852981 -13.69140625 9.99609375 C-13.71074219 9.05765625 -13.73007813 8.11921875 -13.75 7.15234375 C-12.33084721 -0.4462696 -6.37014611 -0.08256192 0 0 Z " fill="#03080A" transform="translate(83.25390625,49.50390625)"/>
<path d="M0 0 C0 23.1 0 46.2 0 70 C-1.65 70 -3.3 70 -5 70 C-5.06947174 61.3161375 -5.1227967 52.63237046 -5.15543652 43.94829082 C-5.17110102 39.91602967 -5.1923533 35.88395847 -5.22631836 31.85180664 C-5.25888429 27.9614608 -5.27684711 24.0712978 -5.28463173 20.18082619 C-5.29018026 18.69562717 -5.30101511 17.2104383 -5.31719017 15.725317 C-5.33892851 13.64697928 -5.34196856 11.56939968 -5.34057617 9.4909668 C-5.34723801 8.30738083 -5.35389984 7.12379486 -5.36076355 5.90434265 C-5 3 -5 3 -3.60371399 1.09431458 C-2 0 -2 0 0 0 Z " fill="#FEC376" transform="translate(34,5)"/>
<path d="M0 0 C0.33 0 0.66 0 1 0 C1.00586624 0.74644775 1.01173248 1.49289551 1.01777649 2.26196289 C1.07586809 9.32343137 1.14803795 16.38458642 1.23571491 23.44573975 C1.28029405 27.07529445 1.31957674 30.70474014 1.34643555 34.33447266 C1.37259403 37.84250351 1.41308266 41.35011198 1.46318626 44.85787964 C1.48779887 46.83622646 1.49786723 48.81473713 1.50764465 50.79321289 C1.60337583 60.30856464 1.60337583 60.30856464 5 69 C10.12974738 71.43024046 15.62122909 71.33497181 21.21484375 71.4140625 C22.07058487 71.43342865 22.92632599 71.4527948 23.80799866 71.4727478 C26.51773383 71.53210914 29.2275125 71.57875366 31.9375 71.625 C33.78452284 71.66321985 35.63152861 71.70227387 37.47851562 71.7421875 C41.98553709 71.83777448 46.49264188 71.92196424 51 72 C48.61402172 74.38597828 48.08057473 74.26082375 44.82910156 74.30639648 C43.96770569 74.32238388 43.10630981 74.33837128 42.21881104 74.35484314 C41.28550964 74.36020584 40.35220825 74.36556854 39.390625 74.37109375 C38.43105896 74.38012222 37.47149292 74.3891507 36.48284912 74.39845276 C34.44855886 74.41298045 32.4142216 74.42184823 30.37988281 74.42553711 C27.27588259 74.43740107 24.17389089 74.48653437 21.0703125 74.53710938 C19.0937597 74.54657716 17.11719469 74.55381049 15.140625 74.55859375 C14.21542053 74.57812607 13.29021606 74.59765839 12.3369751 74.61778259 C7.92700447 74.58711616 4.93468084 74.42439037 1.42871094 71.59008789 C-2.11254463 67.81353177 -2.12800537 66.03215052 -2.14526367 60.94555664 C-2.15164352 59.67406265 -2.15802338 58.40256866 -2.16459656 57.09254456 C-2.16612516 55.69841551 -2.16723916 54.30428595 -2.16796875 52.91015625 C-2.17118095 51.48530544 -2.17454499 50.06045497 -2.17805481 48.63560486 C-2.18404716 45.64711746 -2.1858946 42.658659 -2.18530273 39.67016602 C-2.18520109 35.8388547 -2.19885513 32.00772862 -2.21607494 28.17646122 C-2.22718776 25.23309984 -2.22922217 22.28978334 -2.22869301 19.34640312 C-2.22987414 17.93379515 -2.23430338 16.52118606 -2.24202538 15.10859871 C-2.25181049 13.13370266 -2.2476868 11.15875243 -2.24291992 9.18383789 C-2.24434494 8.05957901 -2.24576996 6.93532013 -2.24723816 5.7769928 C-2 3 -2 3 0 0 Z " fill="#4BB867" transform="translate(67,50)"/>
<path d="M0 0 C1.34362885 0.00031689 2.68728332 0.01162897 4.03076172 0.03173828 C4.73820526 0.03456818 5.4456488 0.03739807 6.17453003 0.04031372 C8.43667432 0.05151941 10.69842437 0.07662399 12.96044922 0.10205078 C14.49299559 0.11208011 16.02554816 0.12120604 17.55810547 0.12939453 C21.31737223 0.15145992 25.07634386 0.18599183 28.83544922 0.22705078 C29.21763689 1.88319735 29.54940024 3.55162102 29.83544922 5.22705078 C28.83544922 6.22705078 28.83544922 6.22705078 25.78442383 6.34057617 C24.43553651 6.34041713 23.08664308 6.3347269 21.73779297 6.32470703 C20.67450523 6.32258461 20.67450523 6.32258461 19.58973694 6.32041931 C17.31743209 6.31480521 15.04522447 6.30225041 12.77294922 6.28955078 C11.23584126 6.28453759 9.69873177 6.27997437 8.16162109 6.27587891 C4.3861928 6.26483121 0.61083751 6.24755719 -3.16455078 6.22705078 C-3.82455078 4.90705078 -4.48455078 3.58705078 -5.16455078 2.22705078 C-3.16455078 0.22705078 -3.16455078 0.22705078 0 0 Z " fill="#E8982E" transform="translate(24.16455078125,78.77294921875)"/>
<path d="M0 0 C0.9796875 0.00515625 1.959375 0.0103125 2.96875 0.015625 C3.9484375 0.01046875 4.928125 0.0053125 5.9375 0 C8.46875 0.265625 8.46875 0.265625 10.46875 2.265625 C10.734375 4.578125 10.734375 4.578125 10.71875 7.265625 C10.72390625 8.1525 10.7290625 9.039375 10.734375 9.953125 C10.46875 12.265625 10.46875 12.265625 8.46875 14.265625 C5.9375 14.53125 5.9375 14.53125 2.96875 14.515625 C1.9890625 14.52078125 1.009375 14.5259375 0 14.53125 C-2.53125 14.265625 -2.53125 14.265625 -4.53125 12.265625 C-4.796875 9.953125 -4.796875 9.953125 -4.78125 7.265625 C-4.78640625 6.37875 -4.7915625 5.491875 -4.796875 4.578125 C-4.4054331 1.17027786 -3.37231793 0.35388522 0 0 Z " fill="#0B0F09" transform="translate(108.53125,72.734375)"/>
<path d="M0 0 C1.48306641 0.02126953 1.48306641 0.02126953 2.99609375 0.04296875 C3.98738281 0.04941406 4.97867188 0.05585937 6 0.0625 C8.43359375 0.23046875 8.43359375 0.23046875 9.43359375 1.23046875 C9.53233191 3.22846447 9.56331174 5.23004033 9.55859375 7.23046875 C9.56117187 8.32359375 9.56375 9.41671875 9.56640625 10.54296875 C9.43359375 13.23046875 9.43359375 13.23046875 8.43359375 14.23046875 C6.62432094 14.35534633 4.80963268 14.40617721 2.99609375 14.41796875 C2.00738281 14.43214844 1.01867187 14.44632813 0 14.4609375 C-2.56640625 14.23046875 -2.56640625 14.23046875 -4.56640625 12.23046875 C-4.83203125 9.91796875 -4.83203125 9.91796875 -4.81640625 7.23046875 C-4.8215625 6.34359375 -4.82671875 5.45671875 -4.83203125 4.54296875 C-4.43763462 1.10939812 -3.40136177 0.30544954 0 0 Z " fill="#040805" transform="translate(91.56640625,72.76953125)"/>
<path d="M0 0 C1.48306641 0.02126953 1.48306641 0.02126953 2.99609375 0.04296875 C3.98738281 0.04941406 4.97867188 0.05585937 6 0.0625 C8.43359375 0.23046875 8.43359375 0.23046875 9.43359375 1.23046875 C9.53233191 3.22846447 9.56331174 5.23004033 9.55859375 7.23046875 C9.56117187 8.32359375 9.56375 9.41671875 9.56640625 10.54296875 C9.43359375 13.23046875 9.43359375 13.23046875 8.43359375 14.23046875 C6.62432094 14.35534633 4.80963268 14.40617721 2.99609375 14.41796875 C2.00738281 14.43214844 1.01867187 14.44632813 0 14.4609375 C-2.56640625 14.23046875 -2.56640625 14.23046875 -4.56640625 12.23046875 C-4.83203125 9.91796875 -4.83203125 9.91796875 -4.81640625 7.23046875 C-4.8215625 6.34359375 -4.82671875 5.45671875 -4.83203125 4.54296875 C-4.43763462 1.10939812 -3.40136177 0.30544954 0 0 Z " fill="#040805" transform="translate(74.56640625,72.76953125)"/>
<path d="M0 0 C1.48306641 0.02126953 1.48306641 0.02126953 2.99609375 0.04296875 C3.98738281 0.04941406 4.97867188 0.05585937 6 0.0625 C8.43359375 0.23046875 8.43359375 0.23046875 9.43359375 1.23046875 C9.50603428 3.25011074 9.51736563 5.27213999 9.49609375 7.29296875 C9.48707031 8.39769531 9.47804688 9.50242187 9.46875 10.640625 C9.45714844 11.49527344 9.44554688 12.34992188 9.43359375 13.23046875 C6.9558428 14.46934423 5.19705668 14.39788544 2.43359375 14.41796875 C1.10328125 14.43923828 1.10328125 14.43923828 -0.25390625 14.4609375 C-2.56640625 14.23046875 -2.56640625 14.23046875 -4.56640625 12.23046875 C-4.83203125 9.91796875 -4.83203125 9.91796875 -4.81640625 7.23046875 C-4.8215625 6.34359375 -4.82671875 5.45671875 -4.83203125 4.54296875 C-4.43763462 1.10939812 -3.40136177 0.30544954 0 0 Z " fill="#040805" transform="translate(74.56640625,105.76953125)"/>
<path d="M0 0 C1.48306641 0.02126953 1.48306641 0.02126953 2.99609375 0.04296875 C3.98738281 0.04941406 4.97867188 0.05585937 6 0.0625 C8.43359375 0.23046875 8.43359375 0.23046875 9.43359375 1.23046875 C9.50603428 3.25011074 9.51736563 5.27213999 9.49609375 7.29296875 C9.48707031 8.39769531 9.47804688 9.50242187 9.46875 10.640625 C9.45714844 11.49527344 9.44554688 12.34992188 9.43359375 13.23046875 C6.9558428 14.46934423 5.19705668 14.39788544 2.43359375 14.41796875 C1.10328125 14.43923828 1.10328125 14.43923828 -0.25390625 14.4609375 C-2.56640625 14.23046875 -2.56640625 14.23046875 -4.56640625 12.23046875 C-4.83203125 9.91796875 -4.83203125 9.91796875 -4.81640625 7.23046875 C-4.8215625 6.34359375 -4.82671875 5.45671875 -4.83203125 4.54296875 C-4.43763462 1.10939812 -3.40136177 0.30544954 0 0 Z " fill="#040805" transform="translate(74.56640625,89.76953125)"/>
<path d="M0 0 C1.48306641 0.02126953 1.48306641 0.02126953 2.99609375 0.04296875 C3.98738281 0.04941406 4.97867188 0.05585937 6 0.0625 C8.43359375 0.23046875 8.43359375 0.23046875 9.43359375 1.23046875 C9.55847133 3.03974156 9.60930221 4.85442982 9.62109375 6.66796875 C9.63527344 7.65667969 9.64945313 8.64539063 9.6640625 9.6640625 C9.43359375 12.23046875 9.43359375 12.23046875 7.43359375 14.23046875 C5.12109375 14.49609375 5.12109375 14.49609375 2.43359375 14.48046875 C1.10328125 14.48820312 1.10328125 14.48820312 -0.25390625 14.49609375 C-2.56640625 14.23046875 -2.56640625 14.23046875 -4.56640625 12.23046875 C-4.83203125 9.91796875 -4.83203125 9.91796875 -4.81640625 7.23046875 C-4.8215625 6.34359375 -4.82671875 5.45671875 -4.83203125 4.54296875 C-4.43763462 1.10939812 -3.40136177 0.30544954 0 0 Z " fill="#040704" transform="translate(91.56640625,105.76953125)"/>
<path d="M0 0 C1.48306641 0.02126953 1.48306641 0.02126953 2.99609375 0.04296875 C3.98738281 0.04941406 4.97867188 0.05585937 6 0.0625 C8.43359375 0.23046875 8.43359375 0.23046875 9.43359375 1.23046875 C9.55847133 3.03974156 9.60930221 4.85442982 9.62109375 6.66796875 C9.63527344 7.65667969 9.64945313 8.64539063 9.6640625 9.6640625 C9.43359375 12.23046875 9.43359375 12.23046875 7.43359375 14.23046875 C5.12109375 14.49609375 5.12109375 14.49609375 2.43359375 14.48046875 C1.10328125 14.48820312 1.10328125 14.48820312 -0.25390625 14.49609375 C-2.56640625 14.23046875 -2.56640625 14.23046875 -4.56640625 12.23046875 C-4.83203125 9.91796875 -4.83203125 9.91796875 -4.81640625 7.23046875 C-4.8215625 6.34359375 -4.82671875 5.45671875 -4.83203125 4.54296875 C-4.43763462 1.10939812 -3.40136177 0.30544954 0 0 Z " fill="#040704" transform="translate(91.56640625,89.76953125)"/>
<path d="M0 0 C1.32 0.33 2.64 0.66 4 1 C4 1.66 4 2.32 4 3 C5.32 3.33 6.64 3.66 8 4 C8 4.99 8 5.98 8 7 C5.36 7 2.72 7 0 7 C0 8.32 0 9.64 0 11 C1.71183486 12.54081603 1.71183486 12.54081603 3.9375 13.6875 C4.66839844 14.10386719 5.39929688 14.52023438 6.15234375 14.94921875 C6.76207031 15.29597656 7.37179688 15.64273438 8 16 C9 17 9 17 9.25 19.8125 C8.97767509 23.28464266 8.4324572 24.5675428 6 27 C5.34 27 4.68 27 4 27 C4 27.99 4 28.98 4 30 C2.68 30 1.36 30 0 30 C0 29.01 0 28.02 0 27 C-1.32 26.67 -2.64 26.34 -4 26 C-4.33 24.68 -4.66 23.36 -5 22 C-2.03 22.33 0.94 22.66 4 23 C4.67154684 20.71658257 4.67154684 20.71658257 4 18 C1.51611677 15.99400034 -1.20922455 14.53404147 -4 13 C-4.33 12.67 -4.66 12.34 -5 12 C-4.75 8.5625 -4.75 8.5625 -4 5 C-3.01 4.34 -2.02 3.68 -1 3 C-0.67 2.01 -0.34 1.02 0 0 Z " fill="#15120E" transform="translate(46,42)"/>
<path d="M0 0 C10.89 0 21.78 0 33 0 C33.495 1.98 33.495 1.98 34 4 C32.2927807 5.7072193 30.08062795 5.13014326 27.75 5.1328125 C26.66589844 5.13410156 25.58179687 5.13539062 24.46484375 5.13671875 C23.32144531 5.13285156 22.17804687 5.12898438 21 5.125 C19.88753906 5.12886719 18.77507813 5.13273437 17.62890625 5.13671875 C11.33462366 5.12930499 5.23955758 4.8328223 -1 4 C-0.67 2.68 -0.34 1.36 0 0 Z " fill="#F79310" transform="translate(20,89)"/>
<path d="M0 0 C1.98 0 3.96 0 6 0 C7 1 7 1 7.11352539 3.13305664 C7.10828857 4.04949951 7.10305176 4.96594238 7.09765625 5.91015625 C7.09443359 6.89951172 7.09121094 7.88886719 7.08789062 8.90820312 C7.07951172 9.94912109 7.07113281 10.99003906 7.0625 12.0625 C7.05798828 13.10728516 7.05347656 14.15207031 7.04882812 15.22851562 C7.03699913 17.8190666 7.02051689 20.40950559 7 23 C4.69 23 2.38 23 0 23 C0 15.41 0 7.82 0 0 Z " fill="#F08E0E" transform="translate(108,93)"/>
<path d="M0 0 C12.21 0 24.42 0 37 0 C36.67 1.32 36.34 2.64 36 4 C24.45 4 12.9 4 1 4 C0.67 2.68 0.34 1.36 0 0 Z " fill="#1E1A14" transform="translate(39,26)"/>
<path d="M0 0 C11.55 0 23.1 0 35 0 C35 1.32 35 2.64 35 4 C23.45 4 11.9 4 0 4 C0 2.68 0 1.36 0 0 Z " fill="#13100C" transform="translate(53,35)"/>
<path d="M0 0 C2.16874252 0.50603992 3.99967627 0.99983813 6 2 C6 3.32 6 4.64 6 6 C4.35 5.67 2.7 5.34 1 5 C1.433125 5.433125 1.86625 5.86625 2.3125 6.3125 C2.869375 6.869375 3.42625 7.42625 4 8 C4.5775 8.45375 5.155 8.9075 5.75 9.375 C7 11 7 11 6.875 13.5 C5.94405797 16.15983437 5.3445991 17.43693393 3 19 C0.67511119 18.7181953 -0.90892835 18.04553582 -3 17 C-3 15.68 -3 14.36 -3 13 C-0.03 13.495 -0.03 13.495 3 14 C1.06745228 11.9754262 -0.63158688 10.57894208 -3 9 C-3.1875 5.875 -3.1875 5.875 -3 3 C-2.01 2.67 -1.02 2.34 0 2 C0 1.34 0 0.68 0 0 Z " fill="#110A00" transform="translate(23,100)"/>
<path d="M0 0 C0.66 0.33 1.32 0.66 2 1 C1.360625 1.804375 0.72125 2.60875 0.0625 3.4375 C-2.53834399 7.39935913 -3.36605486 11.28107534 -3 16 C-1.98263143 18.8891292 -0.60753201 21.40177965 1 24 C1.33 24.66 1.66 25.32 2 26 C-2.42741644 24.64717831 -4.36309221 22.76701112 -7 19 C-8.75845645 15.48308711 -8.68065337 11.82789463 -8 8 C-5.96994709 4.6207427 -3.55205232 1.77602616 0 0 Z " fill="#C36E00" transform="translate(19,97)"/>
<path d="M0 0 C2.12493141 -0.02693575 4.24995912 -0.04636628 6.375 -0.0625 C7.55835938 -0.07410156 8.74171875 -0.08570312 9.9609375 -0.09765625 C13 0 13 0 15 1 C14.67 2.65 14.34 4.3 14 6 C8.39 6 2.78 6 -3 6 C-2.01 4.02 -1.02 2.04 0 0 Z " fill="#9B5800" transform="translate(39,117)"/>
<path d="M0 0 C5.28 0 10.56 0 16 0 C16.33 1.65 16.66 3.3 17 5 C16 6 16 6 13.05859375 6.09765625 C11.26615234 6.08025391 11.26615234 6.08025391 9.4375 6.0625 C7.64119141 6.04896484 7.64119141 6.04896484 5.80859375 6.03515625 C4.88175781 6.02355469 3.95492187 6.01195313 3 6 C2.01 4.02 1.02 2.04 0 0 Z " fill="#D67900" transform="translate(37,98)"/>
<path d="M0 0 C1.65 0 3.3 0 5 0 C5 3.63 5 7.26 5 11 C6.32 11.33 7.64 11.66 9 12 C7.52093108 12.02689216 6.04172517 12.04634621 4.5625 12.0625 C3.32693359 12.07990234 3.32693359 12.07990234 2.06640625 12.09765625 C0 12 0 12 -1 11 C-1.09823937 9.33570949 -1.12973631 7.66718069 -1.125 6 C-1.12757812 5.0925 -1.13015625 4.185 -1.1328125 3.25 C-1 1 -1 1 0 0 Z " fill="#1E7CC4" transform="translate(75,54)"/>
<path d="M0 0 C3.96 0 7.92 0 12 0 C12.33 1.32 12.66 2.64 13 4 C12 5 12 5 9.27734375 5.09765625 C7.62412109 5.08025391 7.62412109 5.08025391 5.9375 5.0625 C4.83277344 5.05347656 3.72804687 5.04445313 2.58984375 5.03515625 C1.30787109 5.01775391 1.30787109 5.01775391 0 5 C0 3.35 0 1.7 0 0 Z " fill="#C87200" transform="translate(41,108)"/>
<path d="M0 0 C2 0 2 0 3.69140625 1.6796875 C4.30886719 2.40414063 4.92632812 3.12859375 5.5625 3.875 C6.18253906 4.59429688 6.80257812 5.31359375 7.44140625 6.0546875 C9 8 9 8 10 10 C6.7 10 3.4 10 0 10 C0 6.7 0 3.4 0 0 Z " fill="#E6A44C" transform="translate(86,8)"/>
<path d="M0 0 C2.31 0 4.62 0 7 0 C7 2.31 7 4.62 7 7 C4.69 7 2.38 7 0 7 C0 4.69 0 2.38 0 0 Z " fill="#2A6E3C" transform="translate(91,109)"/>
<path d="M0 0 C2.31 0 4.62 0 7 0 C7 2.31 7 4.62 7 7 C4.69 7 2.38 7 0 7 C0 4.69 0 2.38 0 0 Z " fill="#2A6F3D" transform="translate(74,109)"/>
<path d="M0 0 C2.31 0 4.62 0 7 0 C7 2.31 7 4.62 7 7 C4.69 7 2.38 7 0 7 C0 4.69 0 2.38 0 0 Z " fill="#2A6E3C" transform="translate(91,93)"/>
<path d="M0 0 C2.31 0 4.62 0 7 0 C7 2.31 7 4.62 7 7 C4.69 7 2.38 7 0 7 C0 4.69 0 2.38 0 0 Z " fill="#2A6F3D" transform="translate(74,93)"/>
<path d="M0 0 C2.31 0 4.62 0 7 0 C7 2.31 7 4.62 7 7 C4.69 7 2.38 7 0 7 C0 4.69 0 2.38 0 0 Z " fill="#C27004" transform="translate(108,76)"/>
<path d="M0 0 C2.31 0 4.62 0 7 0 C7 2.31 7 4.62 7 7 C4.69 7 2.38 7 0 7 C0 4.69 0 2.38 0 0 Z " fill="#235D33" transform="translate(74,76)"/>
<path d="M0 0 C2.31 0 4.62 0 7 0 C7 2.31 7 4.62 7 7 C4.69 7 2.38 7 0 7 C0 4.69 0 2.38 0 0 Z " fill="#296C3B" transform="translate(91,76)"/>
<path d="M0 0 C0.33 0 0.66 0 1 0 C1.06058594 0.78246094 1.12117188 1.56492187 1.18359375 2.37109375 C1.26738281 3.38300781 1.35117188 4.39492187 1.4375 5.4375 C1.51871094 6.44683594 1.59992188 7.45617187 1.68359375 8.49609375 C1.73211468 10.93640779 1.73211468 10.93640779 3 12 C4.68183948 12.23287008 6.3712416 12.41264166 8.0625 12.5625 C8.98160156 12.64628906 9.90070313 12.73007813 10.84765625 12.81640625 C11.55792969 12.87699219 12.26820312 12.93757813 13 13 C13 13.33 13 13.66 13 14 C12.37351562 14.04898438 11.74703125 14.09796875 11.1015625 14.1484375 C10.28429687 14.22320312 9.46703125 14.29796875 8.625 14.375 C7.81289062 14.44460937 7.00078125 14.51421875 6.1640625 14.5859375 C3.79665809 14.82892588 3.79665809 14.82892588 2 17 C1.35232207 19.57061311 1.35232207 19.57061311 1 22 C0.67 22 0.34 22 0 22 C0 14.74 0 7.48 0 0 Z " fill="#7AC88F" transform="translate(69,91)"/>
<path d="M0 0 C3.96 0.33 7.92 0.66 12 1 C12.33 1.99 12.66 2.98 13 4 C11.39602723 4.16852247 9.7918131 4.33474886 8.1875 4.5 C7.29417969 4.5928125 6.40085937 4.685625 5.48046875 4.78125 C3 5 3 5 0 5 C0 3.35 0 1.7 0 0 Z " fill="#6CB280" transform="translate(69,86)"/>
<path d="M0 0 C2.64 0 5.28 0 8 0 C8 1.32 8 2.64 8 4 C5.36 4 2.72 4 0 4 C0 2.68 0 1.36 0 0 Z " fill="#181510" transform="translate(40,35)"/>
<path d="M0 0 C0 4.62 0 9.24 0 14 C-0.99 14 -1.98 14 -3 14 C-2.98839844 13.37351562 -2.97679687 12.74703125 -2.96484375 12.1015625 C-2.95582031 11.28429687 -2.94679687 10.46703125 -2.9375 9.625 C-2.92009766 8.40683594 -2.92009766 8.40683594 -2.90234375 7.1640625 C-2.85533666 4.95062858 -2.85533666 4.95062858 -4 3 C-1.125 0 -1.125 0 0 0 Z " fill="#EFCC9F" transform="translate(60,93)"/>
<path d="M0 0 C2.64 0 5.28 0 8 0 C7.67 1.32 7.34 2.64 7 4 C5.02 4 3.04 4 1 4 C0.67 2.68 0.34 1.36 0 0 Z " fill="#201B15" transform="translate(80,26)"/>
<path d="M0 0 C1.98 0 3.96 0 6 0 C6 1.32 6 2.64 6 4 C4.02 4 2.04 4 0 4 C0 2.68 0 1.36 0 0 Z " fill="#FC950F" transform="translate(108,77)"/>
<path d="M0 0 C1.98 0 3.96 0 6 0 C6 1.32 6 2.64 6 4 C4.02 4 2.04 4 0 4 C0 2.68 0 1.36 0 0 Z " fill="#307E45" transform="translate(74,77)"/>
<path d="M0 0 C0.66 0 1.32 0 2 0 C2 2.31 2 4.62 2 7 C1.01 7 0.02 7 -1 7 C-0.67 4.69 -0.34 2.38 0 0 Z " fill="#F4BB72" transform="translate(58,100)"/>
</svg>
