<?xml version="1.0" encoding="UTF-8"?>
<svg version="1.1" xmlns="http://www.w3.org/2000/svg" width="100" height="100">
<path d="M0 0 C9.91592783 6.32761146 18.24361331 15.39036294 21.54418945 26.8972168 C23.70968554 36.88726382 22.98348588 49.04141687 18 58 C14.34595327 63.63590258 10.20595687 67.77016004 5 72 C3.85755375 73.31841546 2.73366191 74.65305102 1.625 76 C-1.81038902 80.0004201 -5.29277139 82.6463857 -10 85 C-10.61875 85.3196875 -11.2375 85.639375 -11.875 85.96875 C-20.99900618 89.81794011 -33.7594419 89.48166006 -43.0625 86.4375 C-55.2427097 81.12148198 -64.00256101 71.14253771 -69 59 C-71.68963636 49.62307576 -71.21479327 37.32625589 -67.33203125 28.39453125 C-63.58787086 21.66382651 -58.95015648 16.83450214 -53 12 C-51.90143969 10.70021825 -50.81921439 9.38652717 -49.75 8.0625 C-38.10556465 -5.56561129 -15.56591684 -8.63640885 0 0 Z " fill="#EAEAEB" transform="translate(75,9)"/>
<path d="M0 0 C7.15010377 4.27070496 11.43850804 10.35633979 15.05859375 17.75390625 C16.91334133 27.85197642 15.55242528 37.99800312 10.37109375 46.984375 C4.86062273 54.07597549 -3.63932935 58.42917182 -12.37890625 59.81640625 C-21.80432312 60.74543479 -29.62170168 58.04925975 -37.3046875 52.60546875 C-44.18156842 46.67399708 -47.58163146 38.38285001 -48.66015625 29.5 C-49.05805206 19.96707958 -45.19146077 12.17106707 -39.37890625 4.81640625 C-28.36711856 -5.90559755 -13.36212617 -6.64815145 0 0 Z " fill="#FFC572" transform="translate(61.37890625,27.18359375)"/>
<path d="M0 0 C7.62531476 5.39351532 13.5010918 12.91693487 15.3125 22.25 C16.21991987 34.15116065 14.03040203 43.97117396 6.3125 53.25 C4.35347354 55.12300135 2.33613175 56.85576589 0.234375 58.56640625 C-1.62789372 60.19778393 -2.9649484 61.8332174 -4.4375 63.8125 C-9.21507707 69.64298662 -17.31560811 73.19521673 -24.6875 74.25 C-36.21563454 75.2446481 -44.73353519 72.61755211 -53.6484375 65.23046875 C-61.18953814 57.9060664 -64.74709372 49.21101796 -65.125 38.8125 C-64.86392025 29.07309003 -61.18161616 21.4242979 -54.6875 14.25 C-52.70489574 12.56267723 -50.7042658 10.89633943 -48.6875 9.25 C-47.61153424 7.94851616 -46.55001036 6.63501304 -45.5 5.3125 C-33.85523458 -8.41168782 -14.59008241 -9.07935245 0 0 Z M-43.6875 10.25 C-44.41839844 10.6521875 -45.14929688 11.054375 -45.90234375 11.46875 C-53.93577379 16.28078796 -58.60919965 23.04134345 -61.21875 32.00390625 C-63.15099464 41.2625785 -60.90434087 49.98406345 -56.0625 58 C-50.92417412 65.18096901 -43.26496369 69.45992062 -34.6875 71.25 C-25.07715052 72.47036184 -16.39831692 69.4438496 -8.65625 63.828125 C-1.04860269 57.72993152 1.45601784 49.83366589 2.69921875 40.27734375 C2.96484194 33.76499589 1.60359785 28.84486635 -1.6875 23.25 C-2.1 22.54875 -2.5125 21.8475 -2.9375 21.125 C-7.39428048 14.43982928 -13.93460673 10.14895612 -21.625 7.875 C-29.37482273 6.35327368 -36.6813898 6.35771655 -43.6875 10.25 Z " fill="#EB8532" transform="translate(74.6875,15.75)"/>
<path d="M0 0 C7.15010377 4.27070496 11.43850804 10.35633979 15.05859375 17.75390625 C16.91334133 27.85197642 15.55242528 37.99800312 10.37109375 46.984375 C4.86062273 54.07597549 -3.63932935 58.42917182 -12.37890625 59.81640625 C-21.80432312 60.74543479 -29.62170168 58.04925975 -37.3046875 52.60546875 C-44.18156842 46.67399708 -47.58163146 38.38285001 -48.66015625 29.5 C-49.05805206 19.96707958 -45.19146077 12.17106707 -39.37890625 4.81640625 C-28.36711856 -5.90559755 -13.36212617 -6.64815145 0 0 Z M-36.71484375 14.5 C-40.86968762 20.2836207 -41.11104293 25.90389497 -40.37890625 32.81640625 C-38.55370257 40.44796258 -33.68265322 45.38358587 -27.37890625 49.81640625 C-21.4851331 52.69301731 -15.2789029 52.74915023 -8.9453125 51.234375 C-1.9165184 48.56660046 3.55646055 43.07973974 6.82421875 36.33203125 C8.75196236 30.24640927 8.25949492 23.59952336 5.71875 17.76171875 C2.22360652 11.5674787 -2.22226635 6.99798604 -8.921875 4.44140625 C-21.16310646 1.32757949 -28.78805199 5.42050745 -36.71484375 14.5 Z " fill="#FDE083" transform="translate(61.37890625,27.18359375)"/>
<path d="M0 0 C7.62531476 5.39351532 13.5010918 12.91693487 15.3125 22.25 C16.21991987 34.15116065 14.03040203 43.97117396 6.3125 53.25 C4.35347354 55.12300135 2.33613175 56.85576589 0.234375 58.56640625 C-1.62789372 60.19778393 -2.9649484 61.8332174 -4.4375 63.8125 C-9.21507707 69.64298662 -17.31560811 73.19521673 -24.6875 74.25 C-36.21563454 75.2446481 -44.73353519 72.61755211 -53.6484375 65.23046875 C-61.18953814 57.9060664 -64.74709372 49.21101796 -65.125 38.8125 C-64.86392025 29.07309003 -61.18161616 21.4242979 -54.6875 14.25 C-52.70489574 12.56267723 -50.7042658 10.89633943 -48.6875 9.25 C-47.61153424 7.94851616 -46.55001036 6.63501304 -45.5 5.3125 C-33.85523458 -8.41168782 -14.59008241 -9.07935245 0 0 Z M-46.9375 10.875 C-47.40542969 11.45636719 -47.87335937 12.03773437 -48.35546875 12.63671875 C-49.6875 14.25 -49.6875 14.25 -52.25 16.6875 C-58.18976601 22.9318694 -61.6333166 29.85376928 -62 38.5625 C-61.74269434 47.47738426 -58.57978566 55.54896925 -52.6875 62.25 C-45.69349833 68.28249109 -37.31235019 71.91977636 -28.00390625 71.53125 C-17.21558294 70.22136926 -8.71956251 65.31464511 -2.015625 56.82421875 C-0.6875 55.25 -0.6875 55.25 1.8125 53.4375 C8.12630873 47.91291736 11.819788 39.73142105 12.5625 31.46875 C12.84644079 24.44121557 11.92504105 19.28971706 8.3125 13.25 C7.9 12.55003906 7.4875 11.85007812 7.0625 11.12890625 C2.38512995 4.09956319 -5.38649739 -1.05591784 -13.6875 -2.75 C-27.61041562 -3.96742505 -37.84496681 0.25158112 -46.9375 10.875 Z " fill="#504673" transform="translate(74.6875,15.75)"/>
<path d="M0 0 C4.82995469 4.42407615 5.94208751 9.89196139 6.328125 16.20703125 C6.7682097 28.69907417 4.97991075 38.23558602 -3.2109375 48.08203125 C-5.60573667 50.64938145 -8.27736595 52.78785984 -11 55 C-12.14244625 56.31841546 -13.26633809 57.65305102 -14.375 59 C-17.81038902 63.0004201 -21.29277139 65.6463857 -26 68 C-26.61875 68.3196875 -27.2375 68.639375 -27.875 68.96875 C-37.25558473 72.92618418 -50.09434452 72.42957191 -59.5625 69.125 C-63.81034483 67.37931034 -63.81034483 67.37931034 -65 65 C-64.37996094 65.2165625 -63.75992188 65.433125 -63.12109375 65.65625 C-51.95236565 69.16781517 -39.87880725 69.76352086 -29 65 C-22.44163678 61.24130478 -17.04476254 56.53869896 -11.75 51.1875 C-11.069375 50.52685547 -10.38875 49.86621094 -9.6875 49.18554688 C-0.79321065 40.28263903 3.00866175 31.20816783 3.3125 18.6875 C3.23935473 12.05122902 2.18348797 6.25153402 0 0 Z " fill="#1F1F1C" transform="translate(91,26)"/>
<path d="M0 0 C0.99 0.33 1.98 0.66 3 1 C3 1.99 3 2.98 3 4 C4.65 4.33 6.3 4.66 8 5 C8.33 6.32 8.66 7.64 9 9 C5.7 9 2.4 9 -1 9 C-1.33 9.99 -1.66 10.98 -2 12 C-1.30132812 12.26554687 -0.60265625 12.53109375 0.1171875 12.8046875 C1.48230469 13.33449219 1.48230469 13.33449219 2.875 13.875 C4.23238281 14.39707031 4.23238281 14.39707031 5.6171875 14.9296875 C8 16 8 16 10 18 C9.8125 21.5 9.8125 21.5 9 25 C6 27 6 27 3 27 C2.67 28.65 2.34 30.3 2 32 C1.01 31.67 0.02 31.34 -1 31 C-1 29.68 -1 28.36 -1 27 C-2.65 27 -4.3 27 -6 27 C-6.66 25.68 -7.32 24.36 -8 23 C-4.0186217 21.6728739 -0.14954773 21.93084087 4 22 C4 21.34 4 20.68 4 20 C3.38511719 19.81824219 2.77023438 19.63648437 2.13671875 19.44921875 C1.32847656 19.19785156 0.52023438 18.94648437 -0.3125 18.6875 C-1.11300781 18.44386719 -1.91351563 18.20023438 -2.73828125 17.94921875 C-5.15992581 16.93288088 -6.43306569 16.10111647 -8 14 C-7.93064501 10.11612073 -7.86399525 7.86399525 -5.0625 5.0625 C-3 4 -3 4 -1 4 C-0.67 2.68 -0.34 1.36 0 0 Z " fill="#FFFBF5" transform="translate(44,39)"/>
</svg>
