<?xml version="1.0" encoding="UTF-8"?>
<svg version="1.1" xmlns="http://www.w3.org/2000/svg" width="128" height="128" viewBox="0 0 128 128">
<path d="M0 0 C3.51478207 1.76194386 6.91120754 3.6531718 10.265625 5.69921875 C15.74965361 9.00956189 21.271495 12.22782715 26.875 15.33203125 C28.66227952 16.3310019 30.44867182 17.33153965 32.23474121 18.33267212 C33.4191122 18.99209699 34.60670659 19.64576641 35.79748535 20.29354858 C37.48282762 21.21158127 39.15576705 22.15227165 40.828125 23.09375 C41.80394531 23.63233643 42.77976562 24.17092285 43.78515625 24.72583008 C46.015625 26.51171875 46.015625 26.51171875 46.83984375 29.2253418 C46.89785156 29.97984619 46.95585938 30.73435059 47.015625 31.51171875 C50.23178757 29.85769229 52.11904389 28.38708573 54.453125 25.57421875 C58.082723 21.23640651 61.17392325 18.94873272 66.703125 17.63671875 C70.015625 17.51171875 70.015625 17.51171875 73.015625 19.51171875 C74.12482418 23.98290926 73.69051269 28.13846901 71.66796875 32.25390625 C70.59792111 33.95889942 69.48643675 35.63885205 68.328125 37.28515625 C66.67708334 39.65526127 66.67708334 39.65526127 67.015625 43.51171875 C69.41707075 45.66621841 69.41707075 45.66621841 72.015625 47.51171875 C73.32930841 50.13908556 73.17170798 52.13303844 73.20849609 55.07543945 C73.22455902 56.2403743 73.24062195 57.40530914 73.25717163 58.60554504 C73.30152956 63.93552189 73.34312592 69.26535052 73.36572266 74.59545898 C73.37905824 77.40959203 73.40690219 80.22299927 73.44775391 83.03686523 C73.50655518 87.08720143 73.52438254 91.13675924 73.5390625 95.1875 C73.56173187 96.44597244 73.58440125 97.70444489 73.60775757 99.00105286 C73.58695732 107.572043 73.58695732 107.572043 71.01049805 111.80957031 C67.15167161 114.00275022 63.89596972 114.17980216 59.57421875 114.0703125 C58.3671804 114.06681541 58.3671804 114.06681541 57.13575745 114.06324768 C55.44041287 114.0535338 53.74509962 114.03180081 52.05004883 113.9987793 C49.45800634 113.94931191 46.86786292 113.937293 44.27539062 113.93164062 C42.62497985 113.91755543 40.97458551 113.9013513 39.32421875 113.8828125 C38.55121933 113.8774498 37.77821991 113.8720871 36.98179626 113.86656189 C30.10115424 113.71469193 30.10115424 113.71469193 27.015625 111.51171875 C25.73115581 108.94278037 25.68585356 106.74595538 25.453125 103.88671875 C25.32744141 102.38238281 25.32744141 102.38238281 25.19921875 100.84765625 C25.13863281 100.07679687 25.07804687 99.3059375 25.015625 98.51171875 C24.25942871 98.97658691 23.50323242 99.44145508 22.72412109 99.92041016 C19.90447369 101.64038211 17.07497256 103.34116529 14.23681641 105.03027344 C13.01232453 105.76412654 11.79218177 106.5052889 10.57666016 107.25390625 C8.82514934 108.33087774 7.05950895 109.38030818 5.2890625 110.42578125 C4.23122559 111.06467285 3.17338867 111.70356445 2.08349609 112.36181641 C-0.984375 113.51171875 -0.984375 113.51171875 -4.0534668 112.8840332 C-6.84476274 111.57708822 -9.50169662 110.21289005 -12.15234375 108.640625 C-13.11970459 108.07110107 -14.08706543 107.50157715 -15.08374023 106.91479492 C-16.10282471 106.30740479 -17.12190918 105.70001465 -18.171875 105.07421875 C-20.31228098 103.81082678 -22.45290914 102.54781116 -24.59375 101.28515625 C-25.66173828 100.65319336 -26.72972656 100.02123047 -27.83007812 99.37011719 C-33.31517553 96.13849478 -38.83661526 92.96986536 -44.3581543 89.80102539 C-49.87640844 86.61968531 -49.87640844 86.61968531 -50.984375 85.51171875 C-51.14611254 83.74563842 -51.23890498 81.97319617 -51.30419922 80.20092773 C-51.36702591 78.49796791 -51.36702591 78.49796791 -51.43112183 76.76060486 C-51.56153191 72.22661445 -51.66662408 67.69259538 -51.74006462 63.1573019 C-51.79657976 59.71603358 -51.87782122 56.27946007 -52.02001953 52.84057617 C-52.90407074 30.89632375 -52.90407074 30.89632375 -49.89483643 25.59075928 C-46.6134685 22.18314528 -42.35864449 20.9801141 -37.984375 19.51171875 C-35.53351336 18.24173887 -33.19419993 16.80403785 -30.8359375 15.37109375 C-29.63656148 14.68192193 -28.43472405 13.99701611 -27.23046875 13.31640625 C-26.63476074 12.97834961 -26.03905273 12.64029297 -25.42529297 12.29199219 C-24.82604004 11.95200195 -24.22678711 11.61201172 -23.609375 11.26171875 C-21.7750674 10.21783538 -19.9411078 9.17334803 -18.10760498 8.12805176 C-16.3928741 7.15345466 -14.6735594 6.18693615 -12.95410156 5.22070312 C-11.20565769 4.21452859 -9.47391349 3.17625316 -7.78808594 2.06835938 C-4.88127682 0.16450305 -3.4956148 -0.57192651 0 0 Z M61.015625 26.51171875 C58.89199918 28.75039428 56.9310932 31.09360996 55.015625 33.51171875 C58.10890395 36.48847334 58.10890395 36.48847334 62.015625 37.51171875 C63.61922674 35.44163785 63.61922674 35.44163785 65.140625 32.82421875 C65.67945312 31.95410156 66.21828125 31.08398438 66.7734375 30.1875 C68.08722492 27.35748622 68.27062888 25.58839605 68.015625 22.51171875 C65.493689 22.51171875 62.93231667 24.9827716 61.015625 26.51171875 Z " fill="#070503" transform="translate(52.984375,7.48828125)"/>
<path d="M0 0 C3.57472388 0.68452159 5.31482418 2.09409923 7.9375 4.5625 C7.6075 5.5525 7.2775 6.5425 6.9375 7.5625 C6.2775 7.5625 5.6175 7.5625 4.9375 7.5625 C4.9375 6.9025 4.9375 6.2425 4.9375 5.5625 C0.9274066 5.38385369 0.9274066 5.38385369 -3.0625 5.5625 C-3.7225 6.2225 -4.3825 6.8825 -5.0625 7.5625 C-4.96554884 11.90444936 -4.96554884 11.90444936 -3.0625 15.5625 C-0.23176564 16.06419415 -0.23176564 16.06419415 2.9375 15.5625 C5.54164714 13.20837234 5.54164714 13.20837234 7.9375 10.5625 C10.75 9.25 10.75 9.25 12.9375 8.5625 C16.54747684 11.20648534 18.61153727 12.86813926 19.47381592 17.35028076 C19.63176133 20.85909171 19.61129205 24.3245841 19.5234375 27.8359375 C19.51494781 29.11481842 19.50645813 30.39369934 19.49771118 31.71133423 C19.46987292 35.09563512 19.41607189 38.47746727 19.3494873 41.86108398 C19.28787464 45.31993379 19.26065616 48.77903971 19.23046875 52.23828125 C19.16439012 59.01369845 19.06404027 65.78795683 18.9375 72.5625 C13.68644558 72.58714928 8.43542455 72.60533568 3.18432617 72.61743164 C1.39655979 72.62247218 -0.39120245 72.62930454 -2.17895508 72.63793945 C-4.74301168 72.6500173 -7.30701397 72.65573094 -9.87109375 72.66015625 C-11.07734657 72.66789818 -11.07734657 72.66789818 -12.30796814 72.67579651 C-14.22651715 72.67599215 -16.14495368 72.62451983 -18.0625 72.5625 C-19.75936397 70.86563603 -19.26860998 68.68561075 -19.3347168 66.359375 C-19.36691818 65.24731689 -19.39911957 64.13525879 -19.43229675 62.98950195 C-19.52832693 58.54359055 -19.60924746 54.09769207 -19.66275311 49.65104675 C-19.70360199 46.27909381 -19.76361582 42.91007244 -19.87182617 39.53955078 C-19.98772617 35.6505683 -20.03756407 31.76544188 -20.07421875 27.875 C-20.12269455 26.6777832 -20.17117035 25.48056641 -20.22111511 24.24707031 C-20.21009789 19.17923889 -20.12316971 15.88495664 -16.88174438 11.84350586 C-14.36938697 9.57280657 -11.79715718 7.55570445 -9.0625 5.5625 C-7.97286307 4.54839786 -6.88829589 3.52877355 -5.8125 2.5 C-3.0625 0.5625 -3.0625 0.5625 0 0 Z " fill="#F25E69" transform="translate(102.0625,43.4375)"/>
<path d="M0 0 C10.09144691 3.96303786 10.09144691 3.96303786 13 7 C13.81106367 10.46833461 13.45223256 13.78263031 13.1875 17.3125 C12.87222056 23.87255768 12.87222056 23.87255768 15.25585938 29.7578125 C18.96300335 32.9908394 23.99603803 36 29 36 C29.33 29.73 29.66 23.46 30 17 C40.21180957 21.08472383 40.21180957 21.08472383 43 24 C44.11188794 27.74257226 43.9342381 31.33137624 43.78125 35.20703125 C43.76993042 36.28756271 43.75861084 37.36809418 43.74694824 38.48136902 C43.70222318 41.92689586 43.60186011 45.36823498 43.5 48.8125 C43.45986835 51.15033045 43.42336704 53.48822625 43.390625 55.82617188 C43.30250146 61.55220597 43.16870328 67.27580389 43 73 C38.8775243 71.74032316 35.33215576 70.20988803 31.62109375 68.0234375 C30.61626953 67.43433594 29.61144531 66.84523438 28.57617188 66.23828125 C27.0225293 65.31595703 27.0225293 65.31595703 25.4375 64.375 C24.42880859 63.78332031 23.42011719 63.19164062 22.38085938 62.58203125 C20.31137643 61.36375966 18.25869833 60.1165364 16.22290039 58.84277344 C13.01598584 56.89491506 13.01598584 56.89491506 9.35327148 55.63378906 C5.18332843 53.84898632 2.8798371 52.53723073 0 49 C-2.18213306 40.94626189 -1.21276786 32.23657151 -0.8125 24 C-0.74725022 21.67594208 -0.68794166 19.35170927 -0.63476562 17.02734375 C-0.49190136 11.3477327 -0.27480839 5.67467576 0 0 Z " fill="#EDCDA2" transform="translate(6,41)"/>
<path d="M0 0 C0.66 0.33 1.32 0.66 2 1 C0.85660156 1.58394531 -0.28679687 2.16789062 -1.46484375 2.76953125 C-7.03652626 6.31075926 -11.30131443 9.8480077 -14 16 C-15.05129677 23.09242305 -14.32920108 30.43065321 -14 37.5625 C-13.12523603 57.29534666 -13.12523603 57.29534666 -17.30029297 62.34472656 C-23.39473434 67.60451834 -32.66632242 73 -41 73 C-41.38204474 66.18828387 -41.64362729 59.37934043 -41.82397461 52.55932617 C-41.89916915 50.24317261 -42.00136871 47.92772573 -42.1315918 45.61401367 C-43.15046445 27.03856678 -43.15046445 27.03856678 -39.70187378 22.16577148 C-36.28276194 19.09911424 -32.31392072 17.44395628 -28.05770874 15.83407593 C-24.79480909 14.51148542 -21.90136295 12.65654424 -18.91796875 10.8046875 C-16.67522934 9.49350767 -14.43174652 8.18359855 -12.1875 6.875 C-11.32016235 6.36211426 -11.32016235 6.36211426 -10.43530273 5.83886719 C-8.74649264 4.84070902 -7.05109005 3.8537308 -5.35546875 2.8671875 C-4.37215576 2.29081543 -3.38884277 1.71444336 -2.37573242 1.12060547 C-1.59174072 0.75080566 -0.80774902 0.38100586 0 0 Z " fill="#EAB876" transform="translate(94,41)"/>
<path d="M0 0 C5.12234195 2.89650456 8.67150779 6.6432571 10.80859375 12.1640625 C11.80121301 17.79526793 11.08916739 22.40193948 7.80859375 27.1640625 C3.08402298 31.92214087 -0.54102739 34.28329733 -7.37890625 34.6015625 C-12.67939491 34.5524189 -15.6446384 33.34676115 -19.59765625 29.85546875 C-23.47809274 25.73726042 -24.38173019 22.19930812 -24.62890625 16.6640625 C-24.44931952 10.90167096 -22.8888975 7.74886482 -18.6953125 3.73046875 C-13.25131236 -1.0618805 -6.91531503 -2.63792766 0 0 Z " fill="#F2B834" transform="translate(109.19140625,69.8359375)"/>
<path d="M0 0 C0.78503906 0.45632813 1.57007813 0.91265625 2.37890625 1.3828125 C3.11753906 1.80820313 3.85617188 2.23359375 4.6171875 2.671875 C5.64392578 3.33316406 5.64392578 3.33316406 6.69140625 4.0078125 C7.38878906 4.45382813 8.08617187 4.89984375 8.8046875 5.359375 C9.58392578 5.86597656 9.58392578 5.86597656 10.37890625 6.3828125 C7.77032802 9.35276205 4.73788848 11.034262 1.3125 12.96484375 C0.71897232 13.30150558 0.12544464 13.63816742 -0.48606873 13.98503113 C-2.38267168 15.05975054 -4.28292608 16.12780099 -6.18359375 17.1953125 C-8.05289238 18.25016733 -9.9213798 19.30643159 -11.78915405 20.36398315 C-13.00790469 21.05331258 -14.22780803 21.74060817 -15.44888306 22.42581177 C-19.92126168 24.94578998 -24.2630878 27.63382584 -28.55053711 30.45581055 C-30.62109375 31.3828125 -30.62109375 31.3828125 -32.74536133 31.10888672 C-35.08514955 30.20318189 -37.19493099 29.06840585 -39.37109375 27.8203125 C-40.1703125 27.36527344 -40.96953125 26.91023438 -41.79296875 26.44140625 C-42.39625 26.09207031 -42.99953125 25.74273437 -43.62109375 25.3828125 C-42.33698503 21.53048635 -41.09640134 21.25018361 -37.58203125 19.34375 C-36.53305664 18.76689453 -35.48408203 18.19003906 -34.40332031 17.59570312 C-33.27893555 16.98919922 -32.15455078 16.38269531 -30.99609375 15.7578125 C-21.78323719 10.77256311 -21.78323719 10.77256311 -12.80078125 5.390625 C-12.12225098 4.96088379 -11.4437207 4.53114258 -10.74462891 4.08837891 C-9.52886304 3.30606827 -8.32206581 2.50957185 -7.12646484 1.69677734 C-4.43550889 -0.02423017 -3.17705642 -0.74809972 0 0 Z " fill="#DDA26C" transform="translate(52.62109375,12.6171875)"/>
<path d="M0 0 C2.28508792 0.96230472 4.4066289 2.09007542 6.55761719 3.32373047 C7.35683594 3.77876953 8.15605469 4.23380859 8.97949219 4.70263672 C9.58277344 5.05197266 10.18605469 5.40130859 10.80761719 5.76123047 C10.80761719 6.42123047 10.80761719 7.08123047 10.80761719 7.76123047 C9.89604858 8.27339111 9.89604858 8.27339111 8.96606445 8.79589844 C7.14055429 9.82239327 5.31556983 10.84982328 3.4909668 11.87792969 C1.40032809 13.05580499 -0.69131704 14.23189563 -2.78393555 15.40625 C-7.66952289 18.15849294 -12.5265688 20.93308968 -17.29394531 23.88623047 C-18.05392822 24.35303223 -18.81391113 24.81983398 -19.59692383 25.30078125 C-21.00212285 26.17038626 -22.39903004 27.05358274 -23.78588867 27.95214844 C-26.82429102 29.82295004 -28.77799311 30.77188186 -32.38378906 30.67919922 C-35.11078014 29.78790172 -37.19340022 28.79502911 -39.56738281 27.19873047 C-40.25574219 26.74369141 -40.94410156 26.28865234 -41.65332031 25.81982422 C-42.16121094 25.47048828 -42.66910156 25.12115234 -43.19238281 24.76123047 C-40.30851554 21.63520316 -37.47740257 19.59571341 -33.75488281 17.55419922 C-32.69398437 16.96703125 -31.63308594 16.37986328 -30.54003906 15.77490234 C-29.4353125 15.17226563 -28.33058594 14.56962891 -27.19238281 13.94873047 C-25.02511035 12.75582 -22.85844201 11.5618113 -20.69238281 10.36669922 C-19.62117188 9.78065918 -18.54996094 9.19461914 -17.44628906 8.59082031 C-13.13663048 6.16760742 -8.93808854 3.57080132 -4.75097656 0.94213867 C-2.19238281 -0.23876953 -2.19238281 -0.23876953 0 0 Z " fill="#DDA36C" transform="translate(82.1923828125,30.23876953125)"/>
<path d="M0 0 C2 3 2 3 3.75 6.4375 C5.94056773 10.19731079 7.94905539 12.15866154 12 14 C18.29245571 14.82524009 23.60349952 14.59766698 29 11 C30.65 9.68 32.3 8.36 34 7 C34 13.6 34 20.2 34 27 C22.78 27 11.56 27 0 27 C0 18.09 0 9.18 0 0 Z " fill="#FA626D" transform="translate(84,89)"/>
<path d="M0 0 C2.04049422 1.2704964 4.05017465 2.59431196 6 4 C2.64287487 6.80464347 -0.70671468 9.09578953 -4.53515625 11.20703125 C-5.59283203 11.79419922 -6.65050781 12.38136719 -7.74023438 12.98632812 C-8.83658203 13.58896484 -9.93292969 14.19160156 -11.0625 14.8125 C-13.2206618 16.005408 -15.37821558 17.19941669 -17.53515625 18.39453125 C-18.60137207 18.97928223 -19.66758789 19.5640332 -20.76611328 20.16650391 C-22.97655377 21.41974323 -25.15686749 22.72724703 -27.30810547 24.07958984 C-28.3601416 24.73781738 -29.41217773 25.39604492 -30.49609375 26.07421875 C-31.43509521 26.68225342 -32.37409668 27.29028809 -33.34155273 27.91674805 C-36 29 -36 29 -38.66821289 28.28442383 C-41.15334283 26.9155338 -43.59773631 25.50999432 -46 24 C-43.39142177 21.03005045 -40.35898223 19.3485505 -36.93359375 17.41796875 C-36.34006607 17.08130692 -35.74653839 16.74464508 -35.13502502 16.39778137 C-33.23842207 15.32306196 -31.33816767 14.25501151 -29.4375 13.1875 C-27.56826274 12.1326798 -25.69983704 11.07645167 -23.83218384 10.01882935 C-22.61277671 9.32922031 -21.3920588 8.6419237 -20.17001343 7.95700073 C-15.71925839 5.45160379 -11.41364915 2.76515214 -7.16821289 -0.07299805 C-4.33979766 -1.28226419 -2.89671104 -0.92989107 0 0 Z " fill="#BD8455" transform="translate(71,23)"/>
<path d="M0 0 C5.12234195 2.89650456 8.67150779 6.6432571 10.80859375 12.1640625 C11.80121301 17.79526793 11.08916739 22.40193948 7.80859375 27.1640625 C3.08402298 31.92214087 -0.54102739 34.28329733 -7.37890625 34.6015625 C-12.67939491 34.5524189 -15.6446384 33.34676115 -19.59765625 29.85546875 C-23.47809274 25.73726042 -24.38173019 22.19930812 -24.62890625 16.6640625 C-24.44931952 10.90167096 -22.8888975 7.74886482 -18.6953125 3.73046875 C-13.25131236 -1.0618805 -6.91531503 -2.63792766 0 0 Z M-17.19140625 7.1640625 C-20.40557388 10.79296143 -20.71065095 14.26210704 -20.546875 18.94921875 C-19.8597751 23.23037965 -17.51081191 25.98782639 -14.35546875 28.80078125 C-10.53689545 31.20634457 -6.5458977 30.77630537 -2.19140625 30.1640625 C1.64238011 28.35172713 3.34210393 26.86379723 5.68359375 23.3515625 C7.00387313 19.61077093 7.30136513 17.10623353 6.80859375 13.1640625 C4.75478172 9.34984016 2.70312738 6.16395815 -1.19140625 4.1640625 C-7.79510728 2.3910844 -11.75592398 3.03309597 -17.19140625 7.1640625 Z " fill="#100805" transform="translate(109.19140625,69.8359375)"/>
<path d="M0 0 C0.99 0 1.98 0 3 0 C5.75 2.8125 5.75 2.8125 8 6 C7.67 6.99 7.34 7.98 7 9 C6.401875 8.67 5.80375 8.34 5.1875 8 C2.94613529 6.79212012 2.94613529 6.79212012 0 7 C0 7.66 0 8.32 0 9 C1.134375 9.474375 2.26875 9.94875 3.4375 10.4375 C7 12 7 12 8 13 C8.04080783 14.99958364 8.04254356 17.00045254 8 19 C7.195625 19.268125 6.39125 19.53625 5.5625 19.8125 C4.716875 20.204375 3.87125 20.59625 3 21 C2.67 21.99 2.34 22.98 2 24 C1.01 23.67 0.02 23.34 -1 23 C-1 22.34 -1 21.68 -1 21 C-1.639375 20.7525 -2.27875 20.505 -2.9375 20.25 C-5 19 -5 19 -5.75 16.875 C-5.8325 16.25625 -5.915 15.6375 -6 15 C-4.68 14.67 -3.36 14.34 -2 14 C-1.67 14.66 -1.34 15.32 -1 16 C1.52733235 16.65555119 1.52733235 16.65555119 4 17 C1.63672401 14.26357517 -0.63694477 13.23902035 -4 12 C-5 11 -5 11 -5.0625 7.9375 C-5.041875 6.968125 -5.02125 5.99875 -5 5 C-4.360625 4.731875 -3.72125 4.46375 -3.0625 4.1875 C-0.66868314 3.11332248 -0.66868314 3.11332248 0 0 Z " fill="#120D03" transform="translate(101,75)"/>
<path d="M0 0 C1.97161865 1.14595032 1.97161865 1.14595032 4 3 C4.48101807 5.56266785 4.48101807 5.56266785 4.45410156 8.66479492 C4.45379944 9.82577194 4.45349731 10.98674896 4.45318604 12.1829071 C4.43254089 13.43610245 4.41189575 14.68929779 4.390625 15.98046875 C4.38496521 17.26359451 4.37930542 18.54672028 4.37347412 19.86872864 C4.35821488 23.27700045 4.31893221 26.68458839 4.2746582 30.09259033 C4.23371078 33.5713984 4.21546434 37.05031718 4.1953125 40.52929688 C4.15243703 47.35314518 4.0841831 54.17653975 4 61 C3.01 61 2.02 61 1 61 C0.9710663 57.20834926 0.95322399 53.41672673 0.9375 49.625 C0.92912109 48.54476562 0.92074219 47.46453125 0.91210938 46.3515625 C0.90888672 45.3203125 0.90566406 44.2890625 0.90234375 43.2265625 C0.89710693 42.27346191 0.89187012 41.32036133 0.88647461 40.33837891 C1 38 1 38 2 36 C2.19778398 33.95825911 2.19778398 33.95825911 2.1875 31.6875 C2.20167969 30.92824219 2.21585937 30.16898438 2.23046875 29.38671875 C2.11815064 26.94788894 2.11815064 26.94788894 0.99780273 24.68212891 C-0.07122885 21.80853435 -0.23099741 19.7502788 -0.1953125 16.69921875 C-0.18886719 15.72275391 -0.18242188 14.74628906 -0.17578125 13.74023438 C-0.15902344 12.73283203 -0.14226562 11.72542969 -0.125 10.6875 C-0.11597656 9.66076172 -0.10695313 8.63402344 -0.09765625 7.57617188 C-0.07416201 5.05054101 -0.04131131 2.5253919 0 0 Z " fill="#F94755" transform="translate(117,55)"/>
<path d="M0 0 C3.40312738 1.05875074 6.01353231 2.00902154 9 4 C9.2208564 6.95064148 9.28060989 9.68368231 9.1875 12.625 C9.17396484 13.42679688 9.16042969 14.22859375 9.14648438 15.0546875 C9.11109051 17.03674378 9.05728234 19.01845551 9 21 C7.686298 20.3566152 6.37407102 19.71021785 5.0625 19.0625 C4.33160156 18.70285156 3.60070312 18.34320313 2.84765625 17.97265625 C1 17 1 17 0 16 C-0.07319621 13.30345146 -0.09242537 10.63308542 -0.0625 7.9375 C-0.05798828 7.17888672 -0.05347656 6.42027344 -0.04882812 5.63867188 C-0.0370068 3.75908129 -0.01907078 1.87953101 0 0 Z " fill="#DFA46D" transform="translate(23,51)"/>
<path d="M0 0 C1.98 0.495 1.98 0.495 4 1 C4.33 2.32 4.66 3.64 5 5 C3.02 4.34 1.04 3.68 -1 3 C-0.67 2.01 -0.34 1.02 0 0 Z " fill="#DCA830" transform="translate(101,81)"/>
<path d="M0 0 C2.475 0.99 2.475 0.99 5 2 C5 2.66 5 3.32 5 4 C3.35 4 1.7 4 0 4 C0 2.68 0 1.36 0 0 Z " fill="#EAB333" transform="translate(100,88)"/>
</svg>
