<?xml version="1.0" encoding="UTF-8"?>
<svg version="1.1" xmlns="http://www.w3.org/2000/svg" width="128" height="128" viewBox="0 0 128 128">
<path d="M0 0 C3.56293807 3.48089674 5.68427066 7.15626342 7.9453125 11.58203125 C8.72648437 13.10280273 8.72648437 13.10280273 9.5234375 14.65429688 C10.59431445 16.76601398 11.63858739 18.89142658 12.65625 21.02929688 C14.2413712 24.05069253 15.64298458 26.52821506 18 29 C21.0133333 29.9219861 23.43796961 30.09257968 26.57910156 29.99145508 C29 30 29 30 31.625 31.875 C33.60531417 34.93548554 34.13852179 37.43024836 34.125 41 C34.12886719 42.0209375 34.12886719 42.0209375 34.1328125 43.0625 C34 45 34 45 33 48 C37.68056377 48.89153596 41.98154749 48.96446167 46.75 48.8125 C55.15135089 48.73189002 61.62675737 51.22843349 69 55 C69 56.32 69 57.64 69 59 C69.86625 59.165 70.7325 59.33 71.625 59.5 C77.41087806 62.07150136 80.49165637 67.18614496 82.875 72.9375 C85.57897607 82.26378872 85.52303093 94.09093816 81.25390625 102.8671875 C74.95538383 113.58056209 67.35052612 120.06953013 55.19921875 123.34375 C47.27344442 124.96954986 41.12883423 124.08612514 33.54296875 121.36328125 C30.91686892 120.70532571 30.91686892 120.70532571 28.73876953 122.45204163 C25.45222077 124.30960599 23.39372622 124.38577796 19.63671875 124.40405273 C17.73950073 124.42307899 17.73950073 124.42307899 15.80395508 124.44248962 C14.43180171 124.44043819 13.05964948 124.43745018 11.6875 124.43359375 C10.27172597 124.43815794 8.85595416 124.44346423 7.44018555 124.44947815 C4.47793558 124.45839745 1.51595538 124.45599932 -1.44628906 124.44604492 C-5.23611457 124.43454827 -9.02500927 124.45478199 -12.81471252 124.48396206 C-15.73675414 124.50233567 -18.65857306 124.50202954 -21.58065796 124.49632454 C-22.97766426 124.49617151 -24.37468582 124.50220095 -25.77163696 124.51461601 C-27.72661195 124.52954547 -29.68174052 124.51620881 -31.63671875 124.50170898 C-32.74748779 124.50154282 -33.85825684 124.50137665 -35.00268555 124.50120544 C-38.71506261 123.88042854 -40.38827801 122.6753721 -43 120 C-43.59375 116.43359375 -43.59375 116.43359375 -43.5 112.4375 C-43.50257812 111.76525391 -43.50515625 111.09300781 -43.5078125 110.40039062 C-43.42559788 106.26088456 -42.85372275 104.80156594 -40 102 C-39.48404379 98.71093882 -39.48404379 98.71093882 -39.5625 95.0625 C-39.54316406 93.83660156 -39.52382813 92.61070313 -39.50390625 91.34765625 C-39.66660415 87.93299754 -39.66660415 87.93299754 -42 86.03125 C-44 84 -44 84 -44.49609375 80.43359375 C-44.47675781 79.11488281 -44.45742188 77.79617187 -44.4375 76.4375 C-44.44458984 75.76525391 -44.45167969 75.09300781 -44.45898438 74.40039062 C-44.4233764 71.64214185 -44.26046174 69.46957797 -42.91015625 67.03515625 C-41 66 -41 66 -34 66 C-34 61.38 -34 56.76 -34 52 C-35.65 51.67 -37.3 51.34 -39 51 C-41.83183525 48.16816475 -41.36782849 45.41155565 -41.375 41.625 C-41.39949219 40.95210937 -41.42398438 40.27921875 -41.44921875 39.5859375 C-41.46913483 36.21348167 -41.22050343 34.3087048 -39.2421875 31.5390625 C-35.68676345 29.09857979 -33.22170743 29.71855284 -29 30 C-28.73050537 29.28215332 -28.46101074 28.56430664 -28.18334961 27.82470703 C-26.12601885 22.91376895 -23.27539183 18.44688983 -20.5625 13.875 C-19.97662109 12.87339844 -19.39074219 11.87179687 -18.78710938 10.83984375 C-18.21927734 9.87949219 -17.65144531 8.91914063 -17.06640625 7.9296875 C-16.55021729 7.05554199 -16.03402832 6.18139648 -15.50219727 5.28076172 C-11.71976931 -0.46203724 -6.76518358 -2.66394591 0 0 Z " fill="#070703" transform="translate(44,4)"/>
<path d="M0 0 C2.30176835 0.85029249 4.43655917 1.39888133 6.83203125 1.875 C7.78078125 2.24625 8.72953125 2.6175 9.70703125 3 C10.76953125 5.5 10.76953125 5.5 11.70703125 9 C13.18480889 11.56558619 14.76053265 14.04857307 16.3671875 16.53515625 C20.00274665 23.22331317 19.79809255 32.5484699 18.0234375 39.7890625 C14.03688855 50.4749987 7.55044767 57.00973046 -2.52734375 62.13671875 C-10.48090416 64.61939792 -21.45695865 64.48582043 -28.98046875 60.875 C-31.25390625 59.4765625 -31.25390625 59.4765625 -33.29296875 58 C-34.27136719 57.33097656 -34.27136719 57.33097656 -35.26953125 56.6484375 C-41.72016239 51.73497804 -45.12112066 44.68208276 -47.29296875 37 C-48.64481602 25.5352953 -46.64735149 17.07403851 -39.6875 7.87890625 C-29.02896083 -3.89358951 -14.23076141 -5.37150627 0 0 Z " fill="#F7BC4D" transform="translate(105.29296875,60)"/>
<path d="M0 0 C4.12596182 0.99592182 4.3199712 1.36242768 6.453125 4.76171875 C7.2263208 5.9847168 7.2263208 5.9847168 8.01513672 7.23242188 C8.5463916 8.10447266 9.07764648 8.97652344 9.625 9.875 C10.15496582 10.73673828 10.68493164 11.59847656 11.23095703 12.48632812 C12.85101335 15.16161432 14.42955096 17.85783776 16 20.5625 C16.54527344 21.47322266 17.09054688 22.38394531 17.65234375 23.32226562 C22.54634707 31.76718113 22.54634707 31.76718113 21.625 36.875 C19.27491542 39.71468553 16.97314049 40.06102915 13.46875 40.44921875 C12.2003125 40.58972656 10.931875 40.73023438 9.625 40.875 C9.58741577 42.32120728 9.58741577 42.32120728 9.54907227 43.79663086 C9.45514694 47.36187842 9.35489061 50.92692433 9.25268555 54.49194336 C9.20928015 56.03714289 9.16760929 57.58239214 9.12768555 59.12768555 C9.07011801 61.34439096 9.00638576 63.5608448 8.94140625 65.77734375 C8.91633751 66.81954323 8.91633751 66.81954323 8.89076233 67.88279724 C8.73887171 72.76112829 8.73887171 72.76112829 7.625 73.875 C5.13261431 74.00153198 2.68029559 74.06019825 0.1875 74.0625 C-0.50666016 74.07474609 -1.20082031 74.08699219 -1.91601562 74.09960938 C-3.73720901 74.10489842 -5.5578692 73.99669207 -7.375 73.875 C-9.375 71.875 -9.375 71.875 -9.60205078 68.71044922 C-9.60173389 67.36682037 -9.59042181 66.0231659 -9.5703125 64.6796875 C-9.5674826 63.97224396 -9.56465271 63.26480042 -9.56173706 62.53591919 C-9.55053137 60.2737749 -9.52542679 58.01202485 -9.5 55.75 C-9.48997067 54.21745363 -9.48084474 52.68490106 -9.47265625 51.15234375 C-9.45059086 47.39307699 -9.41605896 43.63410536 -9.375 39.875 C-13.005 39.875 -16.635 39.875 -20.375 39.875 C-20.045 40.535 -19.715 41.195 -19.375 41.875 C-17.05343403 42.28229228 -14.7181213 42.61938677 -12.375 42.875 C-12.375 43.535 -12.375 44.195 -12.375 44.875 C-15.35422593 44.90183987 -18.33321295 44.92176037 -21.3125 44.9375 C-22.16263672 44.94587891 -23.01277344 44.95425781 -23.88867188 44.96289062 C-24.69755859 44.96611328 -25.50644531 44.96933594 -26.33984375 44.97265625 C-27.0887085 44.97789307 -27.83757324 44.98312988 -28.60913086 44.98852539 C-30.375 44.875 -30.375 44.875 -31.375 43.875 C-31.49987758 42.06572719 -31.55070846 40.25103893 -31.5625 38.4375 C-31.57667969 37.44878906 -31.59085938 36.46007813 -31.60546875 35.44140625 C-31.375 32.875 -31.375 32.875 -29.375 30.875 C-28.055 30.875 -26.735 30.875 -25.375 30.875 C-25.375 32.855 -25.375 34.835 -25.375 36.875 C-24.055 36.875 -22.735 36.875 -21.375 36.875 C-21.43526367 36.00625244 -21.49552734 35.13750488 -21.55761719 34.24243164 C-21.34720096 30.36239016 -20.36804256 28.35489875 -18.453125 24.99609375 C-17.83953125 23.91005859 -17.2259375 22.82402344 -16.59375 21.70507812 C-15.9440625 20.58552734 -15.294375 19.46597656 -14.625 18.3125 C-13.99078125 17.18908203 -13.3565625 16.06566406 -12.703125 14.90820312 C-4.92812887 1.27766304 -4.92812887 1.27766304 0 0 Z " fill="#93D3A2" transform="translate(38.375,7.125)"/>
<path d="M0 0 C2.30176835 0.85029249 4.43655917 1.39888133 6.83203125 1.875 C7.78078125 2.24625 8.72953125 2.6175 9.70703125 3 C10.76953125 5.5 10.76953125 5.5 11.70703125 9 C13.18480889 11.56558619 14.76053265 14.04857307 16.3671875 16.53515625 C20.00274665 23.22331317 19.79809255 32.5484699 18.0234375 39.7890625 C14.03688855 50.4749987 7.55044767 57.00973046 -2.52734375 62.13671875 C-10.48090416 64.61939792 -21.45695865 64.48582043 -28.98046875 60.875 C-31.25390625 59.4765625 -31.25390625 59.4765625 -33.29296875 58 C-34.27136719 57.33097656 -34.27136719 57.33097656 -35.26953125 56.6484375 C-41.72016239 51.73497804 -45.12112066 44.68208276 -47.29296875 37 C-48.64481602 25.5352953 -46.64735149 17.07403851 -39.6875 7.87890625 C-29.02896083 -3.89358951 -14.23076141 -5.37150627 0 0 Z M-34.75 14.0234375 C-40.32176837 21.16094331 -40.09272604 28.29459592 -39.29296875 37 C-37.63356026 44.29513543 -33.31368055 48.79234346 -27.29296875 53 C-21.45493788 56.4146973 -15.90049084 56.82826685 -9.29296875 56 C-2.30502681 54.03672108 3.90351852 50.09744168 8.02734375 44.0703125 C11.91011093 36.65775698 12.1135519 27.57216023 9.64453125 19.625 C6.84277284 13.41923605 1.30916169 8.43780143 -4.859375 5.66015625 C-17.02997852 2.35866027 -26.20836268 5.46151126 -34.75 14.0234375 Z " fill="#E9DD49" transform="translate(105.29296875,60)"/>
<path d="M0 0 C1.01187881 -0.03212585 2.02375763 -0.06425171 3.06629944 -0.09735107 C7.71604778 -0.18641243 12.36522175 -0.26844954 17.015625 -0.31445312 C19.46295314 -0.3474923 21.91009142 -0.40196995 24.35644531 -0.47851562 C45.82608831 -1.14676353 45.82608831 -1.14676353 50.6965332 2.55957031 C52.95250567 5.0728068 54.53767884 7.42990683 56.14233398 10.38574219 C57.72397648 12.14545094 57.72397648 12.14545094 59.14233398 13.38574219 C56.43891484 16.08916133 55.03649353 15.63901671 51.25561523 15.64453125 C50.02093506 15.65083557 48.78625488 15.65713989 47.51416016 15.66363525 C46.16104999 15.66005557 44.80794111 15.65595363 43.45483398 15.65136719 C42.07242769 15.65271393 40.69002186 15.65465454 39.30761719 15.65716553 C36.40905248 15.66011636 33.51061095 15.65582055 30.61206055 15.64648438 C26.89272761 15.63508973 23.1736833 15.64164944 19.45436096 15.6536293 C16.59938372 15.66084907 13.74447514 15.65855947 10.88949585 15.65337372 C9.51793382 15.65203754 8.14636559 15.65368385 6.77481079 15.65833282 C4.85955928 15.66339967 2.94428598 15.6543105 1.02905273 15.64453125 C-0.06189697 15.64294006 -1.15284668 15.64134888 -2.27685547 15.63970947 C-4.85766602 15.38574219 -4.85766602 15.38574219 -6.85766602 13.38574219 C-7.12329102 10.85449219 -7.12329102 10.85449219 -7.10766602 7.88574219 C-7.11282227 6.90605469 -7.11797852 5.92636719 -7.12329102 4.91699219 C-6.62656482 0.18348369 -4.16362335 0.12003289 0 0 Z " fill="#F0E54B" transform="translate(11.857666015625,108.6142578125)"/>
<path d="M0 0 C0.77943466 0.00222061 1.55886932 0.00444122 2.36192322 0.00672913 C3.68317955 0.00684242 3.68317955 0.00684242 5.03112793 0.00695801 C5.98841293 0.01211929 6.94569794 0.01728058 7.93199158 0.02259827 C9.39480812 0.02472069 9.39480812 0.02472069 10.88717651 0.02688599 C14.01542675 0.03250319 17.14360656 0.04505859 20.27183533 0.05775452 C22.38706867 0.0627673 24.50230313 0.06733059 26.61753845 0.07142639 C31.81482829 0.0824782 37.01207678 0.09923305 42.20933533 0.12025452 C42.71404729 1.88975064 43.21294218 3.66090674 43.70933533 5.43275452 C43.98777283 6.41888733 44.26621033 7.40502014 44.55308533 8.42103577 C45.20933533 11.12025452 45.20933533 11.12025452 45.20933533 14.12025452 C38.69488328 14.17084842 32.18048165 14.20594308 25.6658783 14.2301178 C23.44841112 14.24019276 21.23095728 14.25385311 19.01353455 14.27113342 C15.83137221 14.29531615 12.64938508 14.30672249 9.46714783 14.31556702 C7.97334091 14.33105087 7.97334091 14.33105087 6.44935608 14.34684753 C5.06815079 14.34707413 5.06815079 14.34707413 3.65904236 14.3473053 C2.84629852 14.35174652 2.03355469 14.35618774 1.19618225 14.36076355 C-0.79066467 14.12025452 -0.79066467 14.12025452 -2.79066467 12.12025452 C-3.02113342 9.55384827 -3.02113342 9.55384827 -2.97816467 6.55775452 C-2.97171936 5.56646545 -2.96527405 4.57517639 -2.95863342 3.55384827 C-2.72597917 0.18306683 -2.72597917 0.18306683 0 0 Z " fill="#F0E44B" transform="translate(11.790664672851563,91.87974548339844)"/>
<path d="M0 0 C6.47083383 4.26157527 11.05467227 9.46595482 13.0625 17 C14.11083195 25.69563767 13.22512217 32.80361759 8.0625 40 C3.26114818 45.50057781 -2.34446293 48.37931932 -9.5390625 49.3515625 C-16.68850034 49.73420847 -22.0860849 48.12982528 -27.9375 44 C-33.61659664 38.87829618 -36.50941116 34.13669008 -37.30859375 26.4140625 C-37.44567213 18.59253117 -37.47892721 12.83448346 -31.9375 7 C-23.31605129 -1.72574043 -11.83496836 -6.04988916 0 0 Z M-28.71875 9.0078125 C-33.52064375 15.14608234 -34.8830111 20.22701918 -33.9375 28 C-31.62376121 35.38450277 -27.64838604 40.19529264 -20.9375 44 C-15.11926498 45.93941167 -8.81184536 46.13018477 -3.06640625 43.87109375 C1.93809907 41.02306175 5.39418272 38.22545467 8.0625 33 C8.68125 31.88625 8.68125 31.88625 9.3125 30.75 C11.11910799 24.12577072 10.82813749 17.82836851 7.3984375 11.8203125 C3.90379157 7.05860196 -0.31347838 3.8171181 -5.9375 2 C-15.41614275 0.84702809 -22.26986975 1.73867994 -28.71875 9.0078125 Z " fill="#0F0D04" transform="translate(102.9375,67)"/>
<path d="M0 0 C0.87454834 0.00523682 1.74909668 0.01047363 2.65014648 0.01586914 C3.59438477 0.0190918 4.53862305 0.02231445 5.51147461 0.02563477 C6.50469727 0.03401367 7.49791992 0.04239258 8.52124023 0.05102539 C9.51833008 0.05553711 10.51541992 0.06004883 11.54272461 0.06469727 C14.01478872 0.07652532 16.48673541 0.0930069 18.95874023 0.11352539 C19.08249023 1.22727539 19.20624023 2.34102539 19.33374023 3.48852539 C19.60532154 7.14456216 19.60532154 7.14456216 21.95874023 9.11352539 C24.91726133 9.55712611 27.90822475 9.43765191 30.89624023 9.42602539 C31.7205957 9.44213867 32.54495117 9.45825195 33.39428711 9.47485352 C34.18770508 9.47549805 34.98112305 9.47614258 35.79858398 9.47680664 C36.52424561 9.4797876 37.24990723 9.48276855 37.99755859 9.48583984 C40.53724809 9.00370036 41.4022037 8.14753802 42.95874023 6.11352539 C43.68566284 3.00513518 43.68566284 3.00513518 43.95874023 0.11352539 C45.93874023 0.11352539 47.91874023 0.11352539 49.95874023 0.11352539 C49.8259668 0.70520508 49.69319336 1.29688477 49.55639648 1.90649414 C49.37979492 2.69668945 49.20319336 3.48688477 49.02124023 4.30102539 C48.8472168 5.07833008 48.67319336 5.85563477 48.49389648 6.65649414 C47.95362277 9.13702091 47.45381626 11.62363754 46.95874023 14.11352539 C40.15945604 14.16411479 33.36022014 14.19921206 26.56079102 14.22338867 C24.24631944 14.23346431 21.93186065 14.24712514 19.61743164 14.2644043 C16.29627331 14.28858404 12.97528283 14.29999269 9.65405273 14.30883789 C8.6144339 14.31916046 7.57481506 14.32948303 6.50369263 14.34011841 C5.5428476 14.34026947 4.58200256 14.34042053 3.59204102 14.34057617 C2.7437674 14.3450174 1.89549377 14.34945862 1.02151489 14.35403442 C-1.04125977 14.11352539 -1.04125977 14.11352539 -3.04125977 12.11352539 C-3.27172852 9.54711914 -3.27172852 9.54711914 -3.22875977 6.55102539 C-3.22231445 5.55973633 -3.21586914 4.56844727 -3.20922852 3.54711914 C-2.97582634 0.16550164 -2.97582634 0.16550164 0 0 Z " fill="#F6BF4D" transform="translate(7.041259765625,73.886474609375)"/>
<path d="M0 0 C0.99 0.33 1.98 0.66 3 1 C3 1.99 3 2.98 3 4 C4.65 4.33 6.3 4.66 8 5 C8 6.32 8 7.64 8 9 C6.35 8.67 4.7 8.34 3 8 C3 10.64 3 13.28 3 16 C3.94875 16.268125 4.8975 16.53625 5.875 16.8125 C9 18 9 18 11 21 C11.4375 23.875 11.4375 23.875 11 27 C8.6875 29.875 8.6875 29.875 6 32 C5.01 32 4.02 32 3 32 C3 33.32 3 34.64 3 36 C1.68 36 0.36 36 -1 36 C-1 35.01 -1 34.02 -1 33 C-1.94875 32.9175 -2.8975 32.835 -3.875 32.75 C-7 32 -7 32 -8.375 29.9375 C-8.58125 29.298125 -8.7875 28.65875 -9 28 C-6 27 -6 27 -1 29 C-1 25.37 -1 21.74 -1 18 C-2.32 17.67 -3.64 17.34 -5 17 C-6.75 15.8125 -6.75 15.8125 -8 14 C-8.4375 11.0625 -8.4375 11.0625 -8 8 C-6.1875 5.625 -6.1875 5.625 -4 4 C-3.01 4 -2.02 4 -1 4 C-0.67 2.68 -0.34 1.36 0 0 Z " fill="#1C1509" transform="translate(90,72)"/>
<path d="M0 0 C1.37899979 0.00666183 1.37899979 0.00666183 2.78585815 0.01345825 C3.82678619 0.01360931 4.86771423 0.01376038 5.94018555 0.01391602 C7.63085648 0.02939987 7.63085648 0.02939987 9.35568237 0.04519653 C10.50704681 0.04802643 11.65841125 0.05085632 12.84466553 0.05377197 C16.533338 0.06499496 20.22177041 0.09010347 23.91036987 0.11550903 C26.40646012 0.12553609 28.90255417 0.13466241 31.39865112 0.14285278 C37.52763971 0.1649412 43.65648765 0.19843957 49.78536987 0.24050903 C49.78536987 0.57050903 49.78536987 0.90050903 49.78536987 1.24050903 C35.26536987 1.24050903 20.74536987 1.24050903 5.78536987 1.24050903 C5.78536987 4.87050903 5.78536987 8.50050903 5.78536987 12.24050903 C33.01036987 11.74550903 33.01036987 11.74550903 60.78536987 11.24050903 C60.78536987 12.23050903 60.78536987 13.22050903 60.78536987 14.24050903 C59.00849343 16.01738548 56.41657733 15.37738875 54.01217651 15.38577271 C52.16004295 15.39534248 52.16004295 15.39534248 50.27049255 15.40510559 C48.91217081 15.40663415 47.55384854 15.40774818 46.19552612 15.40847778 C44.81169093 15.41168873 43.42785607 15.41505268 42.04402161 15.41856384 C39.13951836 15.42456127 36.23504489 15.42640312 33.33053589 15.42581177 C29.60334841 15.42571012 25.87635135 15.43936175 22.14920902 15.45658398 C19.2899538 15.46768683 16.43074484 15.46973151 13.57147026 15.46920204 C12.19711081 15.47038478 10.82275027 15.47482291 9.44841194 15.48253441 C7.52828535 15.49229901 5.60810325 15.48820118 3.68795776 15.48342896 C2.0470089 15.48556648 2.0470089 15.48556648 0.37290955 15.48774719 C-2.21463013 15.24050903 -2.21463013 15.24050903 -4.21463013 13.24050903 C-4.48025513 10.70925903 -4.48025513 10.70925903 -4.46463013 7.74050903 C-4.46978638 6.76082153 -4.47494263 5.78113403 -4.48025513 4.77175903 C-4.13412187 1.47331271 -3.36154622 0.36506423 0 0 Z " fill="#D8A943" transform="translate(9.214630126953125,108.75949096679688)"/>
<path d="M0 0 C3.46679688 0.04882812 3.46679688 0.04882812 6.93359375 0.09765625 C6.60359375 3.72765625 6.27359375 7.35765625 5.93359375 11.09765625 C18.80359375 11.09765625 31.67359375 11.09765625 44.93359375 11.09765625 C44.93359375 12.08765625 44.93359375 13.07765625 44.93359375 14.09765625 C38.4191417 14.14825015 31.90474007 14.18334481 25.39013672 14.20751953 C23.17266954 14.2175945 20.9552157 14.23125484 18.73779297 14.24853516 C15.55563063 14.27271788 12.37364351 14.28412422 9.19140625 14.29296875 C7.69759933 14.30845261 7.69759933 14.30845261 6.1736145 14.32424927 C4.79240921 14.32447586 4.79240921 14.32447586 3.38330078 14.32470703 C2.57055695 14.32914825 1.75781311 14.33358948 0.92044067 14.33816528 C-1.06640625 14.09765625 -1.06640625 14.09765625 -3.06640625 12.09765625 C-3.296875 9.53125 -3.296875 9.53125 -3.25390625 6.53515625 C-3.24746094 5.54386719 -3.24101562 4.55257812 -3.234375 3.53125 C-3.00043204 0.14179736 -3.00043204 0.14179736 0 0 Z " fill="#EFB84B" transform="translate(12.06640625,91.90234375)"/>
<path d="M0 0 C8.25 0 16.5 0 25 0 C23.35 1.32 21.7 2.64 20 4 C18.61683038 5.17797413 17.24128907 6.36498782 15.875 7.5625 C15.21242188 8.14128906 14.54984375 8.72007813 13.8671875 9.31640625 C11.99474625 10.93046071 11.99474625 10.93046071 10.55078125 12.703125 C8.42426503 14.48147106 7.04056214 14.3061114 4.3125 14.1875 C2.889375 14.125625 1.46625 14.06375 0 14 C0 9.38 0 4.76 0 0 Z " fill="#EBDB4A" transform="translate(51,56)"/>
<path d="M0 0 C3.96 0 7.92 0 12 0 C12.12375 1.11375 12.2475 2.2275 12.375 3.375 C12.6465813 7.03103677 12.6465813 7.03103677 15 9 C17.95852109 9.44360072 20.94948451 9.32412652 23.9375 9.3125 C24.76185547 9.32861328 25.58621094 9.34472656 26.43554688 9.36132812 C27.22896484 9.36197266 28.02238281 9.36261719 28.83984375 9.36328125 C29.56550537 9.36626221 30.29116699 9.36924316 31.03881836 9.37231445 C33.57850786 8.89017497 34.44346347 8.03401263 36 6 C36.7269226 2.89160979 36.7269226 2.89160979 37 0 C38.98 0 40.96 0 43 0 C42.69078116 1.45903258 42.37751201 2.91720722 42.0625 4.375 C41.88847656 5.18710938 41.71445312 5.99921875 41.53515625 6.8359375 C41 9 41 9 40 11 C26.8 11 13.6 11 0 11 C0 7.37 0 3.74 0 0 Z " fill="#EDE24A" transform="translate(14,74)"/>
<path d="M0 0 C0.66 0.33 1.32 0.66 2 1 C1.20335937 1.8353125 1.20335937 1.8353125 0.390625 2.6875 C-8.67450523 12.4804874 -11.40316077 20.29998048 -11.28125 33.6796875 C-10.64168183 41.23014506 -7.1770614 48.45716796 -2 54 C0.25769386 55.85319037 2.54037639 57.40847884 5 59 C4.01 59.495 4.01 59.495 3 60 C-5.62371555 55.01349781 -12.82276604 48.54425671 -15.5546875 38.63671875 C-17.4404882 27.47079357 -16.48321066 18.42755088 -10 9 C-6.99295485 5.38393305 -3.90888146 2.60592097 0 0 Z " fill="#F4BB4C" transform="translate(74,61)"/>
<path d="M0 0 C2.66266871 2.23320602 2.95347082 3.6200117 3.375 7.0625 C3 10 3 10 1.75 11.8125 C-2.43872229 14.65484727 -7.10811247 14.31059603 -12 14 C-14 12.9375 -14 12.9375 -15 11 C-15.5 7.5 -15.5 7.5 -15 4 C-10.43891728 0.30182482 -5.77300948 -0.51544727 0 0 Z " fill="#050503" transform="translate(106,32)"/>
<path d="M0 0 C1.9375 1.0625 1.9375 1.0625 3 3 C3.57767503 6.40186405 3.79407419 8.77477899 1.86328125 11.75390625 C-0.64731284 14.48854285 -2.57807007 15.85654382 -6.125 17.0625 C-9 17 -9 17 -11.3125 15.875 C-13.44844689 13.50172568 -13.92398434 12.19265766 -14 9 C-10.8834458 2.27480409 -7.63368845 -0.97156035 0 0 Z " fill="#030301" transform="translate(94,12)"/>
<path d="M0 0 C3.4375 0.75 3.4375 0.75 5.4375 2.75 C5.98633865 8.34815423 4.88678596 11.85142807 2.4375 16.75 C1.4375 17.75 1.4375 17.75 -1.9375 18 C-5.5625 17.75 -5.5625 17.75 -7.5 16.75 C-9.67341258 12.65887044 -8.96083446 8.15949118 -7.75 3.875 C-5.69884982 0.20452072 -4.11880468 -0.28903892 0 0 Z " fill="#050503" transform="translate(71.5625,0.25)"/>
<path d="M0 0 C6.75 -0.125 6.75 -0.125 9 1 C9.02686553 2.97909398 9.04633375 4.95828971 9.0625 6.9375 C9.07410156 8.03964844 9.08570312 9.14179687 9.09765625 10.27734375 C9 13 9 13 8 14 C6.43827255 14.08685603 4.87270656 14.10702219 3.30859375 14.09765625 C2.36435547 14.09443359 1.42011719 14.09121094 0.44726562 14.08789062 C-0.54595703 14.07951172 -1.53917969 14.07113281 -2.5625 14.0625 C-3.55958984 14.05798828 -4.55667969 14.05347656 -5.58398438 14.04882812 C-8.05604849 14.03700007 -10.52799518 14.02051849 -13 14 C-13 13.34 -13 12.68 -13 12 C-12.38511719 11.90203125 -11.77023438 11.8040625 -11.13671875 11.703125 C-6.16910209 10.86160783 -6.16910209 10.86160783 -2 8.25 C-0.78539856 5.51714677 -0.33666353 2.96263909 0 0 Z " fill="#EEE14B" transform="translate(64,38)"/>
<path d="M0 0 C0.90492187 0.02320313 1.80984375 0.04640625 2.7421875 0.0703125 C5.1553125 0.1321875 5.1553125 0.1321875 7.6171875 0.1953125 C7.6171875 4.8153125 7.6171875 9.4353125 7.6171875 14.1953125 C6.0084375 14.2365625 4.3996875 14.2778125 2.7421875 14.3203125 C1.83726563 14.34351562 0.93234375 14.36671875 0 14.390625 C-2.3828125 14.1953125 -2.3828125 14.1953125 -4.3828125 12.1953125 C-4.6484375 9.8828125 -4.6484375 9.8828125 -4.6328125 7.1953125 C-4.63796875 6.3084375 -4.643125 5.4215625 -4.6484375 4.5078125 C-4.26887307 1.20336922 -3.31332868 0.27158432 0 0 Z " fill="#F4C04C" transform="translate(18.3828125,55.8046875)"/>
<path d="M0 0 C1.98 0.99 1.98 0.99 4 2 C4.33 11.9 4.66 21.8 5 32 C8.96 32 12.92 32 17 32 C17 32.33 17 32.66 17 33 C14.54137599 33.05383848 12.0839245 33.09359038 9.625 33.125 C8.92632812 33.14175781 8.22765625 33.15851563 7.5078125 33.17578125 C5.67102514 33.19344267 3.83398037 33.10303261 2 33 C0 31 0 31 -0.22705078 27.92724609 C-0.21657715 26.63898926 -0.20610352 25.35073242 -0.1953125 24.0234375 C-0.1924826 23.33819 -0.18965271 22.6529425 -0.18673706 21.94692993 C-0.17553281 19.75610973 -0.15042859 17.56569684 -0.125 15.375 C-0.11497048 13.8906309 -0.10584458 12.4062554 -0.09765625 10.921875 C-0.07559294 7.28111739 -0.04106176 3.64059844 0 0 Z " fill="#67A68B" transform="translate(29,48)"/>
<path d="M0 0 C1.32 0 2.64 0 4 0 C4 1.98 4 3.96 4 6 C4.99 6 5.98 6 7 6 C7.61875 7.2065625 7.61875 7.2065625 8.25 8.4375 C9.84985553 11.4084131 9.84985553 11.4084131 13.6875 11.8125 C14.780625 11.874375 15.87375 11.93625 17 12 C17 12.66 17 13.32 17 14 C14.02077407 14.02683987 11.04178705 14.04676037 8.0625 14.0625 C6.78729492 14.07506836 6.78729492 14.07506836 5.48632812 14.08789062 C4.67744141 14.09111328 3.86855469 14.09433594 3.03515625 14.09765625 C2.2862915 14.10289307 1.53742676 14.10812988 0.76586914 14.11352539 C-1 14 -1 14 -2 13 C-2.12487758 11.19072719 -2.17570846 9.37603893 -2.1875 7.5625 C-2.20167969 6.57378906 -2.21585937 5.58507813 -2.23046875 4.56640625 C-2 2 -2 2 0 0 Z " fill="#F4BC4D" transform="translate(9,38)"/>
<path d="M0 0 C1.35171615 4.05514845 0.14061034 5.69896939 -1.4375 9.625 C-3.63195915 15.31685533 -4.5255401 19.90373481 -4 26 C-2.68 26.66 -1.36 27.32 0 28 C-3.63 28 -7.26 28 -11 28 C-12.5819276 23.2542172 -11.04055596 19.10866415 -8.89355469 14.7578125 C-7.60163738 12.47249282 -6.25622498 10.23240003 -4.875 8 C-4.17310547 6.83791016 -4.17310547 6.83791016 -3.45703125 5.65234375 C-2.3137575 3.76244224 -1.16143565 1.87877414 0 0 Z " fill="#73B99B" transform="translate(28,19)"/>
<path d="M0 0 C1.98 0 3.96 0 6 0 C5.69078116 1.45903258 5.37751201 2.91720722 5.0625 4.375 C4.80146484 5.59316406 4.80146484 5.59316406 4.53515625 6.8359375 C4 9 4 9 3 11 C-4.59 11 -12.18 11 -20 11 C-20 10.67 -20 10.34 -20 10 C-18.87980469 9.96261719 -17.75960937 9.92523438 -16.60546875 9.88671875 C-15.1327791 9.82105743 -13.66012434 9.75461014 -12.1875 9.6875 C-11.44951172 9.66494141 -10.71152344 9.64238281 -9.95117188 9.61914062 C-5.75001779 9.43363206 -5.75001779 9.43363206 -2.03125 7.65625 C-0.5170459 5.22434645 -0.31248765 2.81238885 0 0 Z " fill="#DDD245" transform="translate(51,74)"/>
<path d="M0 0 C1.02577148 0.07831055 1.02577148 0.07831055 2.07226562 0.15820312 C3.73621169 0.28619898 5.3994473 0.42337719 7.0625 0.5625 C6.7325 1.2225 6.4025 1.8825 6.0625 2.5625 C-0.8675 2.5625 -7.7975 2.5625 -14.9375 2.5625 C-14.9375 1.9025 -14.9375 1.2425 -14.9375 0.5625 C-9.79660079 -0.33999856 -5.24023626 -0.41736395 0 0 Z " fill="#E7B148" transform="translate(65.9375,49.4375)"/>
<path d="M0 0 C0.598125 0.226875 1.19625 0.45375 1.8125 0.6875 C1.25545272 3.91837421 0.48062465 5.71111137 -2.1875 7.6875 C-3.5075 7.6875 -4.8275 7.6875 -6.1875 7.6875 C-5.82037028 4.97074005 -5.46005401 3.07686287 -3.875 0.8125 C-2.1875 -0.3125 -2.1875 -0.3125 0 0 Z " fill="#E4E187" transform="translate(91.1875,16.3125)"/>
<path d="M0 0 C0 1.65 0 3.3 0 5 C-2.64 5.33 -5.28 5.66 -8 6 C-8.33 4.68 -8.66 3.36 -9 2 C-5.62902617 0.50178941 -3.79557881 0 0 0 Z " fill="#E6E389" transform="translate(104,36)"/>
<path d="M0 0 C1.65 0 3.3 0 5 0 C4.34 2.97 3.68 5.94 3 9 C1.68 8.67 0.36 8.34 -1 8 C-0.67 5.36 -0.34 2.72 0 0 Z " fill="#E6E389" transform="translate(68,5)"/>
<path d="M0 0 C1.98 0.99 1.98 0.99 4 2 C3.67 3.65 3.34 5.3 3 7 C2.01 7.33 1.02 7.66 0 8 C0 5.36 0 2.72 0 0 Z " fill="#FABE4E" transform="translate(93,92)"/>
<path d="M0 0 C0.66 0.33 1.32 0.66 2 1 C-1.63 4.3 -5.26 7.6 -9 11 C-9 8 -9 8 -7.03125 5.95703125 C-6.1959375 5.24933594 -5.360625 4.54164062 -4.5 3.8125 C-3.6646875 3.09707031 -2.829375 2.38164063 -1.96875 1.64453125 C-1.3190625 1.10183594 -0.669375 0.55914062 0 0 Z " fill="#E9B249" transform="translate(74,61)"/>
</svg>
