<?xml version="1.0" encoding="UTF-8"?>
<svg version="1.1" xmlns="http://www.w3.org/2000/svg" width="128" height="128" viewBox="0 0 128 128">
<path d="M0 0 C0.495 1.485 0.495 1.485 1 3 C3.84650639 5.11488498 3.84650639 5.11488498 6.93359375 5.8515625 C13.17943773 8.19077031 16.65896112 14.36416496 19.5859375 20.1171875 C24.992416 32.64896714 25.28696535 44.01791765 21 57 C15.69466304 68.41949789 8.4428078 76.60553346 -3 82 C-13.42650667 85.70782189 -23.42449711 86.19260465 -34 83 C-34 86.63 -34 90.26 -34 94 C-33.15179688 93.67644531 -32.30359375 93.35289063 -31.4296875 93.01953125 C-22.99187896 90.51125331 -13.85858972 91.07070514 -6 95 C-2.57051979 98.42948021 -3.5890917 103.22440635 -3.5625 107.875 C-3.52962891 108.88175781 -3.49675781 109.88851562 -3.46289062 110.92578125 C-3.40877467 118.33474812 -3.40877467 118.33474812 -6.33984375 121.6328125 C-11.1780019 124.11938423 -15.42321498 124.18321802 -20.75 124.1875 C-21.53632812 124.19974609 -22.32265625 124.21199219 -23.1328125 124.22460938 C-27.03330556 124.23432821 -29.98484888 124.00457363 -33.765625 122.86328125 C-37.60829758 121.83764038 -38.46031064 122.45962848 -42 124 C-44.98051102 124.30931916 -47.94348992 124.27932908 -50.9375 124.25 C-51.72318359 124.25773438 -52.50886719 124.26546875 -53.31835938 124.2734375 C-56.98374195 124.26116844 -59.70310638 124.10611131 -63.19140625 122.859375 C-66.84864349 121.74033162 -68.44760473 122.7102208 -72 124 C-74.81559016 124.31894532 -77.60619556 124.32501682 -80.4375 124.3125 C-81.52514648 124.33666992 -81.52514648 124.33666992 -82.63476562 124.36132812 C-87.80646788 124.36597476 -91.43110735 123.46639338 -96 121 C-98.52362061 117.21456909 -98.32343398 114.14317968 -98.3359375 109.75390625 C-98.3425943 108.94638412 -98.3492511 108.138862 -98.35610962 107.30686951 C-98.36623016 105.59970374 -98.37092682 103.89249847 -98.37060547 102.18530273 C-98.37497848 99.57534547 -98.41130127 96.96707989 -98.44921875 94.35742188 C-98.45508713 92.69792245 -98.45905638 91.03841499 -98.4609375 89.37890625 C-98.47530853 88.59963272 -98.48967957 87.82035919 -98.50448608 87.01747131 C-98.474664 83.47569653 -98.28379234 81.39360431 -96.18603516 78.48413086 C-93.10069731 76.38945041 -90.6672127 76.87132587 -87 77 C-85.7625 76.505 -85.7625 76.505 -84.5 76 C-78.82068692 73.72827477 -73.55742761 75.18532976 -68 77 C-68.06960937 75.53626953 -68.06960937 75.53626953 -68.140625 74.04296875 C-68.19476563 72.13451172 -68.19476563 72.13451172 -68.25 70.1875 C-68.29640625 68.92292969 -68.3428125 67.65835938 -68.390625 66.35546875 C-68 63 -68 63 -66.109375 61.05078125 C-64 60 -64 60 -62 60 C-62.2165625 59.41476563 -62.433125 58.82953125 -62.65625 58.2265625 C-66.31994616 46.930166 -67.08704154 33.44263379 -62.26171875 22.38671875 C-60.12163474 18.33844837 -57.82125335 14.61065514 -55 11 C-54.52175781 10.38382813 -54.04351562 9.76765625 -53.55078125 9.1328125 C-41.68294177 -4.31939849 -15.64372999 -9.95207504 0 0 Z " fill="#090602" transform="translate(101,4)"/>
<path d="M0 0 C2.09970906 0.69616022 3.99903964 1.04596641 6.19140625 1.2890625 C9.19140625 1.7265625 9.19140625 1.7265625 11.19140625 3.7265625 C11.41828125 4.4278125 11.64515625 5.1290625 11.87890625 5.8515625 C13.17490416 8.69041507 14.38709014 10.11561821 16.50390625 12.3515625 C24.5239053 21.42859072 26.20675159 30.31040867 25.671875 42.12109375 C24.7860872 53.03837258 19.18137965 62.04181067 11.3515625 69.47265625 C1.05638336 77.91512421 -10.07752808 78.52062692 -22.80859375 77.7265625 C-24.48346588 77.4372664 -26.15629529 77.12505801 -27.80859375 76.7265625 C-27.81117187 75.69015625 -27.81375 74.65375 -27.81640625 73.5859375 C-27.85393596 72.21610298 -27.89308359 70.84631212 -27.93359375 69.4765625 C-27.93101563 68.79464844 -27.9284375 68.11273438 -27.92578125 67.41015625 C-28.07567237 63.55045997 -28.53156232 61.9933335 -31.33984375 59.2890625 C-35.455665 57.43508896 -38.72563365 57.06523802 -43.18359375 56.9765625 C-43.91964844 56.94691406 -44.65570313 56.91726562 -45.4140625 56.88671875 C-47.21166805 56.81668217 -49.01013165 56.76928131 -50.80859375 56.7265625 C-55.40269467 45.71302592 -57.11559003 34.66308531 -52.68359375 23.2890625 C-47.05522006 11.51058384 -38.95220928 3.62696041 -26.80859375 -1.2734375 C-17.98303804 -3.57010421 -8.54109664 -3.01119387 0 0 Z " fill="#FC557F" transform="translate(94.80859375,6.2734375)"/>
<path d="M0 0 C4.12562117 0.5381245 8.22051859 1.18324508 12.3125 1.9375 C13.15425781 2.09089844 13.99601562 2.24429687 14.86328125 2.40234375 C17 3 17 3 19 5 C19.3403125 6.051875 19.3403125 6.051875 19.6875 7.125 C20.98349791 9.96385257 22.19568389 11.38905571 24.3125 13.625 C32.33249905 22.70202822 34.01534534 31.58384617 33.48046875 43.39453125 C32.59468095 54.31181008 26.9899734 63.31524817 19.16015625 70.74609375 C14.14345698 74.85999233 8.33400458 77.57386543 2 79 C-0.328125 78.59765625 -0.328125 78.59765625 -2 78 C-1.02160156 77.54560547 -1.02160156 77.54560547 -0.0234375 77.08203125 C11.37270392 71.61927909 18.04670541 64.7328699 22.9375 52.875 C26.04258512 42.06542244 25.01599182 29.00247781 20 19 C15.03740519 11.06476177 8.60874607 4.77944949 0 1 C0 0.67 0 0.34 0 0 Z " fill="#FA406E" transform="translate(87,5)"/>
<path d="M0 0 C2.4375 1.9375 2.4375 1.9375 4 5 C4.30367593 9.22924278 4.04038603 12.77383074 1.25 16.0625 C-1.51996331 17.21665138 -3.03517061 17.59296588 -6 17 C-8.44182312 14.88815298 -9.75727395 13.23814802 -10.38671875 10.02734375 C-10.57264385 6.59734629 -10.25109841 4.38630524 -8.375 1.5 C-5.25673949 -0.46942769 -3.62279473 -0.67927401 0 0 Z " fill="#110609" transform="translate(71,26)"/>
<path d="M0 0 C3.02594595 0.96572743 4.02174426 1.49977024 5.9375 3.9375 C6.62684584 7.00508897 6.51432127 9.85393211 5.9375 12.9375 C3.75 16.0625 3.75 16.0625 0.9375 17.9375 C-2.20226434 18.01225629 -3.47430697 17.42428044 -5.875 15.4375 C-7.68305214 11.63107445 -7.73634782 8.0714428 -7.0625 3.9375 C-4.93218565 0.49622298 -4.05821062 -0.08282062 0 0 Z " fill="#0E0407" transform="translate(93.0625,45.0625)"/>
<path d="M0 0 C0.99 0 1.98 0 3 0 C2.48734533 4.86470381 0.12529915 8.31708984 -2.55078125 12.26953125 C-3.2336042 13.29103523 -3.2336042 13.29103523 -3.93022156 14.33317566 C-4.89188539 15.76556979 -5.85786862 17.19507232 -6.82788086 18.62182617 C-8.31235835 20.81229098 -9.772757 23.01755681 -11.23242188 25.22460938 C-12.17045054 26.61554503 -13.10985699 28.00555274 -14.05078125 29.39453125 C-14.704132 30.38813408 -14.704132 30.38813408 -15.37068176 31.40180969 C-16.6340332 33.23364258 -16.6340332 33.23364258 -19 36 C-20.32 36 -21.64 36 -23 36 C-21.59766027 32.12260745 -19.77738154 28.92651451 -17.48046875 25.5078125 C-16.44116211 23.95513672 -16.44116211 23.95513672 -15.38085938 22.37109375 C-14.65705078 21.29988281 -13.93324219 20.22867188 -13.1875 19.125 C-12.47529297 18.06152344 -11.76308594 16.99804688 -11.02929688 15.90234375 C-9.64880006 13.84628466 -8.26215952 11.7943339 -6.86865234 9.74707031 C-5.72611971 8.06745479 -4.59364094 6.38087317 -3.47900391 4.68261719 C-2.3948548 3.06837645 -1.20863505 1.52327074 0 0 Z " fill="#130609" transform="translate(90,26)"/>
<path d="M0 0 C0.33 0.66 0.66 1.32 1 2 C3.25701232 2.3925628 3.25701232 2.3925628 5.875 2.5 C9.58038253 2.71605729 10.80892206 2.87261471 14 5 C14 5.66 14 6.32 14 7 C10.11547511 9.60345817 5.99486196 9.29578807 1.5 9.25 C0.74074219 9.25773437 -0.01851562 9.26546875 -0.80078125 9.2734375 C-4.66792278 9.25989235 -7.72791354 9.19299412 -11 7 C-9.21020584 1.63061752 -5.59163302 -0.63904377 0 0 Z " fill="#F2D95E" transform="translate(19,81)"/>
<path d="M0 0 C-2.90352875 3.03550733 -4.17061489 3.95213316 -8.51953125 4.203125 C-9.95044765 4.22442236 -11.38146143 4.2398056 -12.8125 4.25 C-13.52470703 4.270625 -14.23691406 4.29125 -14.97070312 4.3125 C-19.52575514 4.34620991 -22.33844086 3.7335805 -26 1 C-19.67721972 -6.27119733 -7.72776617 -3.49936581 0 0 Z " fill="#EED65C" transform="translate(93,103)"/>
<path d="M0 0 C-2.95861882 3.40241164 -5.34371064 3.87852321 -9.76953125 4.203125 C-16.00875184 4.29923623 -20.49182555 4.00445879 -26 1 C-20.11706466 -6.12144805 -7.22156242 -3.85149996 0 0 Z " fill="#F2AE00" transform="translate(63,69)"/>
<path d="M0 0 C0.8353125 0.16242188 1.670625 0.32484375 2.53125 0.4921875 C6.23607213 1.03456011 9.75678272 1.13260817 13.5 1.125 C14.7684375 1.12757812 16.036875 1.13015625 17.34375 1.1328125 C20.66105518 1.0123121 23.74630764 0.6326624 27 0 C26.8125 2.375 26.8125 2.375 26 5 C21.92600967 7.23535424 18.14553439 7.29865397 13.5625 7.3125 C11.64630859 7.33763672 11.64630859 7.33763672 9.69140625 7.36328125 C5.79351169 6.97967893 3.35478391 5.96516708 0 4 C0 2.68 0 1.36 0 0 Z " fill="#E2CB54" transform="translate(7,117)"/>
<path d="M0 0 C0.86830444 0.24339111 0.86830444 0.24339111 1.75415039 0.49169922 C5.28380645 1.29056256 8.83759894 1.14344527 12.4375 1.125 C13.18837891 1.12886719 13.93925781 1.13273437 14.71289062 1.13671875 C18.60864317 1.12986606 22.1954934 0.95301756 26 0 C25.75 2.375 25.75 2.375 25 5 C21.42170958 7.64090452 17.32338398 7.33192062 13.0625 7.3125 C12.35931641 7.32861328 11.65613281 7.34472656 10.93164062 7.36132812 C6.49118273 7.36548975 3.40594095 6.95270419 0 4 C0 2.68 0 1.36 0 0 Z " fill="#F2AE00" transform="translate(37,117)"/>
<path d="M0 0 C0.9075 0.165 1.815 0.33 2.75 0.5 C10.45017465 1.5955533 18.35788963 1.38947461 26 0 C25.67 1.65 25.34 3.3 25 5 C17.85599496 7.54009068 9.95804916 8.55823706 2.8125 5.5 C1.884375 5.005 0.95625 4.51 0 4 C0 2.68 0 1.36 0 0 Z " fill="#F5DC5E" transform="translate(37,109)"/>
<path d="M0 0 C0.86830444 0.24339111 0.86830444 0.24339111 1.75415039 0.49169922 C5.28380645 1.29056256 8.83759894 1.14344527 12.4375 1.125 C13.18837891 1.12886719 13.93925781 1.13273437 14.71289062 1.13671875 C18.60864317 1.12986606 22.1954934 0.95301756 26 0 C25.75 2.375 25.75 2.375 25 5 C21.42170958 7.64090452 17.32338398 7.33192062 13.0625 7.3125 C12.35931641 7.32861328 11.65613281 7.34472656 10.93164062 7.36132812 C6.49118273 7.36548975 3.40594095 6.95270419 0 4 C0 2.68 0 1.36 0 0 Z " fill="#F2AD00" transform="translate(37,100)"/>
<path d="M0 0 C0.86044922 0.24339111 0.86044922 0.24339111 1.73828125 0.49169922 C3.97084647 0.99344801 5.90437954 1.12917365 8.1875 1.1328125 C8.96867187 1.13410156 9.74984375 1.13539062 10.5546875 1.13671875 C11.36164062 1.13285156 12.16859375 1.12898438 13 1.125 C13.80695312 1.12886719 14.61390625 1.13273437 15.4453125 1.13671875 C16.22648437 1.13542969 17.00765625 1.13414063 17.8125 1.1328125 C18.52019531 1.13168457 19.22789063 1.13055664 19.95703125 1.12939453 C22.07712733 0.99511502 23.95957563 0.57716498 26 0 C25.75 2.375 25.75 2.375 25 5 C21.42170958 7.64090452 17.32338398 7.33192062 13.0625 7.3125 C12.35931641 7.32861328 11.65613281 7.34472656 10.93164062 7.36132812 C6.49118273 7.36548975 3.40594095 6.95270419 0 4 C0 2.68 0 1.36 0 0 Z " fill="#EBA800" transform="translate(37,83)"/>
<path d="M0 0 C0.86044922 0.24339111 0.86044922 0.24339111 1.73828125 0.49169922 C3.97084647 0.99344801 5.90437954 1.12917365 8.1875 1.1328125 C8.96867187 1.13410156 9.74984375 1.13539062 10.5546875 1.13671875 C11.36164063 1.13285156 12.16859375 1.12898438 13 1.125 C13.80695313 1.12886719 14.61390625 1.13273437 15.4453125 1.13671875 C16.22648437 1.13542969 17.00765625 1.13414063 17.8125 1.1328125 C18.52019531 1.13168457 19.22789063 1.13055664 19.95703125 1.12939453 C22.07712733 0.99511502 23.95957563 0.57716498 26 0 C25.8125 2.375 25.8125 2.375 25 5 C20.91068395 7.24797299 17.10105674 7.29869683 12.5 7.3125 C11.2109375 7.32925781 9.921875 7.34601563 8.59375 7.36328125 C4.82773561 6.98258632 2.87457673 6.44891825 0 4 C0 2.68 0 1.36 0 0 Z " fill="#F5DC5E" transform="translate(67,117)"/>
<path d="M0 0 C0.55268555 0.16298584 1.10537109 0.32597168 1.67480469 0.49389648 C4.25473034 1.05544477 6.56355224 1.1130026 9.203125 1.09765625 C10.1828125 1.09443359 11.1625 1.09121094 12.171875 1.08789062 C13.18765625 1.07951172 14.2034375 1.07113281 15.25 1.0625 C16.28125 1.05798828 17.3125 1.05347656 18.375 1.04882812 C20.91672573 1.03706088 23.45833319 1.02062011 26 1 C26 2.32 26 3.64 26 5 C21.69304078 7.11141946 17.71019137 7.33422597 13 7.3125 C12.30132812 7.32861328 11.60265625 7.34472656 10.8828125 7.36132812 C6.45852303 7.36550198 3.39489547 6.93738026 0 4 C0 2.68 0 1.36 0 0 Z " fill="#EED65C" transform="translate(7,100)"/>
<path d="M0 0 C0.85722656 0.16242188 1.71445312 0.32484375 2.59765625 0.4921875 C10.31588457 1.64416188 18.32981914 1.42701039 26 0 C25.67 1.65 25.34 3.3 25 5 C18.79971311 7.75568306 11.20199129 8.21766247 4.66796875 6.32421875 C2.75 5.5 2.75 5.5 0 4 C0 2.68 0 1.36 0 0 Z " fill="#FAE060" transform="translate(37,92)"/>
<path d="M0 0 C0.68320313 0.16242188 1.36640625 0.32484375 2.0703125 0.4921875 C9.83606243 1.83825082 18.26330471 1.47365625 26 0 C26 1.32 26 2.64 26 4 C19.12137665 7.11484831 12.16626441 8.55524223 4.7421875 6.3203125 C2.8125 5.5 2.8125 5.5 0 4 C0 2.68 0 1.36 0 0 Z " fill="#E9A800" transform="translate(67,109)"/>
<path d="M0 0 C1.02287109 0.24363281 1.02287109 0.24363281 2.06640625 0.4921875 C5.40567442 1.07022327 8.54911293 1.13235806 11.9375 1.125 C13.71447266 1.12886719 13.71447266 1.12886719 15.52734375 1.1328125 C18.77535743 1.0085915 21.81203717 0.61325697 25 0 C24.67 1.65 24.34 3.3 24 5 C17.9696093 7.68017364 10.23671778 8.35731884 3.890625 6.32421875 C2.25 5.5 2.25 5.5 0 4 C0 2.68 0 1.36 0 0 Z " fill="#E9A700" transform="translate(8,109)"/>
<path d="M0 0 C1.28390625 0.24363281 1.28390625 0.24363281 2.59375 0.4921875 C5.95330474 0.99303855 9.10618917 1.1330805 12.5 1.125 C13.5828125 1.12757812 14.665625 1.13015625 15.78125 1.1328125 C18.93390353 1.00272728 21.90298066 0.5876874 25 0 C24.67 1.65 24.34 3.3 24 5 C17.9696093 7.68017364 10.23671778 8.35731884 3.890625 6.32421875 C2.25 5.5 2.25 5.5 0 4 C0 2.68 0 1.36 0 0 Z " fill="#EBA900" transform="translate(8,92)"/>
<path d="M0 0 C0.845625 0.16242188 1.69125 0.32484375 2.5625 0.4921875 C6.09463777 1.01398058 9.43134629 1.13282599 13 1.125 C14.175625 1.12757812 15.35125 1.13015625 16.5625 1.1328125 C19.79725504 1.00783333 22.82468717 0.6098924 26 0 C26 1.32 26 2.64 26 4 C16.24748169 7.79264601 9.75251831 7.79264601 0 4 C0 2.68 0 1.36 0 0 Z " fill="#ECD45A" transform="translate(37,75)"/>
<path d="M0 0 C1.32 0.33 2.64 0.66 4 1 C4.625 3.8125 4.625 3.8125 5 7 C4.01 8.485 4.01 8.485 3 10 C1.68 9.67 0.36 9.34 -1 9 C-1.625 6.1875 -1.625 6.1875 -2 3 C-1.34 2.01 -0.68 1.02 0 0 Z " fill="#E74E74" transform="translate(91,49)"/>
<path d="M0 0 C-0.1875 2.375 -0.1875 2.375 -1 5 C-4.34157247 6.94925061 -7.18115446 7.21821974 -11 7 C-10.01 5.68 -9.02 4.36 -8 3 C-11.3 3 -14.6 3 -18 3 C-18 2.67 -18 2.34 -18 2 C-17.01257813 1.93941406 -16.02515625 1.87882812 -15.0078125 1.81640625 C-13.72648437 1.73261719 -12.44515625 1.64882812 -11.125 1.5625 C-9.84882812 1.48128906 -8.57265625 1.40007812 -7.2578125 1.31640625 C-4.53573738 1.05203205 -2.62506009 0 0 0 Z " fill="#DCBF2E" transform="translate(93,117)"/>
<path d="M0 0 C-0.25 2.375 -0.25 2.375 -1 5 C-3.89810116 7.09862498 -5.28378861 7 -9 7 C-8.67 5.68 -8.34 4.36 -8 3 C-11.3 3 -14.6 3 -18 3 C-18 2.67 -18 2.34 -18 2 C-16.64455078 1.90912109 -16.64455078 1.90912109 -15.26171875 1.81640625 C-13.49248047 1.69072266 -13.49248047 1.69072266 -11.6875 1.5625 C-9.92986328 1.44068359 -9.92986328 1.44068359 -8.13671875 1.31640625 C-5.29407556 1.02966391 -2.82033039 0 0 0 Z " fill="#D19600" transform="translate(63,117)"/>
<path d="M0 0 C-0.33 1.65 -0.66 3.3 -1 5 C-7.07027358 7.1583195 -12.59370576 7.20852314 -19 7 C-19 6.67 -19 6.34 -19 6 C-18.30132812 5.97421875 -17.60265625 5.9484375 -16.8828125 5.921875 C-15.97273438 5.86515625 -15.06265625 5.8084375 -14.125 5.75 C-13.22007813 5.70359375 -12.31515625 5.6571875 -11.3828125 5.609375 C-8.83425447 5.25526431 -8.83425447 5.25526431 -7.80078125 3 C-7.40439453 2.01 -7.40439453 2.01 -7 1 C-4.50529228 0.03430669 -2.70254461 0 0 0 Z " fill="#D9BC2C" transform="translate(63,109)"/>
<path d="M0 0 C-0.33 1.65 -0.66 3.3 -1 5 C-6.87883349 7.61281488 -12.70731728 7.18328202 -19 7 C-19 6.67 -19 6.34 -19 6 C-18.30132812 5.97421875 -17.60265625 5.9484375 -16.8828125 5.921875 C-15.97273438 5.86515625 -15.06265625 5.8084375 -14.125 5.75 C-13.22007813 5.70359375 -12.31515625 5.6571875 -11.3828125 5.609375 C-8.83425447 5.25526431 -8.83425447 5.25526431 -7.80078125 3 C-7.40439453 2.01 -7.40439453 2.01 -7 1 C-4.50529228 0.03430669 -2.70254461 0 0 0 Z " fill="#E0C32E" transform="translate(63,92)"/>
<path d="M0 0 C0.33 1.32 0.66 2.64 1 4 C-2.51187196 6.40814077 -4.72656908 7.36629408 -9 7 C-8.34 5.68 -7.68 4.36 -7 3 C-9.97 3 -12.94 3 -16 3 C-16 2.67 -16 2.34 -16 2 C-10.72 1.34 -5.44 0.68 0 0 Z " fill="#D19600" transform="translate(62,100)"/>
<path d="M0 0 C0 1.32 0 2.64 0 4 C-3.50776784 5.60355101 -6.14354879 6.22036864 -10 6 C-9.34 4.68 -8.68 3.36 -8 2 C-11.3 2 -14.6 2 -18 2 C-18 1.67 -18 1.34 -18 1 C-15.56257869 0.83210874 -13.12507454 0.66563867 -10.6875 0.5 C-9.99720703 0.45230469 -9.30691406 0.40460938 -8.59570312 0.35546875 C-5.72337641 0.16120511 -2.87986212 0 0 0 Z " fill="#DBBE2E" transform="translate(33,101)"/>
<path d="M0 0 C1.32 0 2.64 0 4 0 C5.125 6.75 5.125 6.75 4 9 C2.35 8.67 0.7 8.34 -1 8 C-1.04241723 5.66705225 -1.04092937 3.33297433 -1 1 C-0.67 0.67 -0.34 0.34 0 0 Z " fill="#F5537C" transform="translate(66,30)"/>
<path d="M0 0 C-0.1875 2.375 -0.1875 2.375 -1 5 C-4.34157247 6.94925061 -7.18115446 7.21821974 -11 7 C-6.58282209 1.23312883 -6.58282209 1.23312883 -3.8125 0.125 C-2.54399687 0.03751703 -1.27151621 0 0 0 Z " fill="#DCBE28" transform="translate(34,117)"/>
<path d="M0 0 C0 1.32 0 2.64 0 4 C-4.43076923 6.09230769 -4.43076923 6.09230769 -7.3125 5.625 C-7.869375 5.41875 -8.42625 5.2125 -9 5 C-8.67 4.01 -8.34 3.02 -8 2 C-5.10441559 0.5522078 -3.25811062 0 0 0 Z " fill="#F6D42C" transform="translate(63,75)"/>
</svg>
